<svg width="22" height="22" viewBox="0 0 22 22" fill="none" xmlns="http://www.w3.org/2000/svg">
<path d="M16.3027 16.4308C16.1857 16.4313 16.0697 16.4526 15.9601 16.4938L15.9598 16.4939C15.8982 16.5171 15.3332 16.7292 14.7451 16.8907C14.4132 16.9818 13.318 17.2605 12.4667 17.2605C10.231 17.2605 8.14636 16.4024 6.59111 14.8463L6.58992 14.8451C5.83052 14.0904 5.22837 13.1925 4.81832 12.2035C4.62606 11.7398 4.46911 10.9658 4.35943 10.2672C4.30588 9.92616 4.26558 9.61671 4.23866 9.39247C4.22522 9.28048 4.21516 9.19006 4.20849 9.12796L4.2025 9.07094L4.20315 9.05982C4.20508 9.02735 4.208 8.98002 4.21189 8.92131C4.21969 8.80375 4.23138 8.64121 4.2469 8.46128C4.27874 8.09234 4.32426 7.68142 4.37982 7.42733L4.38005 7.42627C4.7668 5.63902 5.79271 4.00745 7.27316 2.8385C8.79475 1.64514 10.6731 0.997424 12.6068 0.999272H12.6073C14.9245 0.999272 17.0769 1.8858 18.6753 3.48595C20.1844 5.00003 21.0075 6.98526 21.0009 9.07816L21.0009 9.07932C20.9996 10.6359 20.5348 12.1568 19.6658 13.4482L19.6637 13.4513L19.6351 13.49L19.6349 13.4902L19.6296 13.4972L19.6296 13.4973C19.6274 13.5002 19.624 13.5048 19.6198 13.5104C19.6149 13.5171 19.6091 13.5252 19.6031 13.5337L19.5887 13.5544L19.5765 13.5764L19.5721 13.5843C19.5456 13.6299 19.5215 13.6768 19.4999 13.7249L19.4254 13.8905L19.4746 14.0653L20.2124 16.6875L20.2123 16.6875L20.215 16.6964C20.234 16.7595 20.2445 16.8247 20.2462 16.8905C20.2457 16.9712 20.2296 17.051 20.1988 17.1256C20.1674 17.2016 20.1213 17.2706 20.0632 17.3287C20.005 17.3868 19.936 17.4329 19.86 17.4643C19.7856 17.4951 19.7059 17.5112 19.6254 17.5118C19.5343 17.5092 19.4445 17.4901 19.3602 17.4555L19.3489 17.4508L19.3373 17.4468L16.6861 16.5068L16.6814 16.505C16.6805 16.5046 16.6796 16.5042 16.6786 16.5038C16.5595 16.4546 16.4316 16.4298 16.3027 16.4308ZM16.3027 16.4308C16.3019 16.4308 16.3011 16.4309 16.3002 16.4309L16.3057 16.9308L16.3052 16.4308C16.3044 16.4308 16.3035 16.4308 16.3027 16.4308ZM11.7096 18.9824C9.31046 18.8154 7.05284 17.7858 5.35373 16.0838C3.84227 14.5805 2.85996 12.627 2.55469 10.5172L2.55462 10.5167C2.52105 10.2831 2.50356 10.1325 2.4944 10.0372C2.48981 9.98937 2.48722 9.95449 2.48577 9.92926C2.48504 9.91659 2.48458 9.90609 2.4843 9.8974L2.484 9.88548L2.48393 9.88031L2.48392 9.8779L2.48391 9.87673L2.48391 9.87616L2.48391 9.87588C2.48391 9.8758 2.48391 9.87573 2.55731 9.87567L2.48391 9.87569C2.4839 9.82491 2.46843 9.77534 2.43956 9.73357C2.41068 9.6918 2.36978 9.65982 2.32228 9.64187C2.27478 9.62392 2.22294 9.62086 2.17366 9.6331C2.12438 9.64534 2.08 9.67229 2.04641 9.71037L2.03974 9.71793L11.7096 18.9824ZM11.7096 18.9824C11.7092 18.9824 11.7089 18.9824 11.7085 18.9824L11.7453 18.4837L11.7106 18.9825C11.7103 18.9825 11.7099 18.9825 11.7096 18.9824Z" stroke="#001649"/>
</svg>
