<svg width="25" height="25" viewBox="0 0 25 25" fill="none" xmlns="http://www.w3.org/2000/svg">
<path d="M12.9995 22.4846C12.683 22.4842 12.374 22.3885 12.1125 22.2101C8.23992 19.5812 6.56305 17.7787 5.63814 16.6517C3.66709 14.2495 2.72345 11.7833 2.75006 9.11248C2.7811 6.05193 5.23654 3.5625 8.22366 3.5625C10.3958 3.5625 11.9002 4.78603 12.7763 5.80506C12.804 5.83702 12.8383 5.86264 12.8768 5.8802C12.9154 5.89776 12.9572 5.90685 12.9995 5.90685C13.0418 5.90685 13.0837 5.89776 13.1222 5.8802C13.1607 5.86264 13.195 5.83702 13.2227 5.80506C14.0989 4.78504 15.6033 3.5625 17.7754 3.5625C20.7625 3.5625 23.2179 6.05193 23.249 9.11297C23.2756 11.7842 22.3309 14.2505 20.3609 16.6522C19.436 17.7792 17.7591 19.5817 13.8865 22.2106C13.625 22.3888 13.316 22.4843 12.9995 22.4846Z" fill="#001649"/>
</svg>
