<svg width="22" height="20" viewBox="0 0 22 20" fill="none" xmlns="http://www.w3.org/2000/svg">
<path d="M10.9995 19.4846C10.683 19.4842 10.374 19.3885 10.1125 19.2101C6.23992 16.5812 4.56305 14.7787 3.63814 13.6517C1.66709 11.2495 0.72345 8.78325 0.750059 6.11248C0.781103 3.05193 3.23654 0.5625 6.22366 0.5625C8.39576 0.5625 9.90016 1.78603 10.7763 2.80506C10.804 2.83702 10.8383 2.86264 10.8768 2.8802C10.9154 2.89776 10.9572 2.90685 10.9995 2.90685C11.0418 2.90685 11.0837 2.89776 11.1222 2.8802C11.1607 2.86264 11.195 2.83702 11.2227 2.80506C12.0989 1.78504 13.6033 0.5625 15.7754 0.5625C18.7625 0.5625 21.2179 3.05193 21.249 6.11297C21.2756 8.78424 20.3309 11.2505 18.3609 13.6522C17.436 14.7792 15.7591 16.5817 11.8865 19.2106C11.625 19.3888 11.316 19.4843 10.9995 19.4846Z" fill="white"/>
</svg>
