<svg width="30" height="30" viewBox="0 0 30 30" fill="none" xmlns="http://www.w3.org/2000/svg">
<path d="M10.5408 27.9909L10.2143 27.4288L10.5408 27.9909ZM9.42501 27.1469L8.77992 27.0671L9.42501 27.1469ZM8.54176 22.4258L7.97408 22.7425L7.97801 22.7493L8.54176 22.4258ZM7.20835 20.0357L7.77604 19.719L7.77211 19.7121L7.20835 20.0357ZM28.1904 17.7399L28.5169 18.302V18.302L28.1904 17.7399ZM28.0388 16.3614L28.3051 15.7684L28.3051 15.7684L28.0388 16.3614ZM24.4568 13.1824L23.8889 13.4987L23.893 13.5059L24.4568 13.1824ZM23.1909 10.9098L23.7587 10.5935L23.7546 10.5863L23.1909 10.9098ZM10.5253 7.46333L10.8517 8.0254L10.5253 7.46333ZM18.8924 27.8795L19.2189 28.4415L18.8924 27.8795ZM0.94776 14.3839C0.998386 14.7393 1.32753 14.9863 1.68293 14.9357C2.03833 14.8851 2.28539 14.556 2.23477 14.2006L0.94776 14.3839ZM3.28348 8.90966C3.47125 8.60369 3.37543 8.20345 3.06946 8.01568C2.7635 7.82792 2.36325 7.92373 2.17549 8.2297L3.28348 8.90966ZM14.9102 0.851756C14.5513 0.858565 14.2658 1.15505 14.2726 1.51397C14.2795 1.87289 14.5759 2.15833 14.9349 2.15152L14.9102 0.851756ZM20.0211 3.84277C20.3004 4.06837 20.7096 4.02488 20.9352 3.74563C21.1608 3.46639 21.1173 3.05713 20.8381 2.83154L20.0211 3.84277ZM10.0701 27.2266C10.2465 25.8004 10.1355 23.8969 9.10551 22.1022L7.97801 22.7493C8.82813 24.2306 8.93302 25.8289 8.77992 27.0671L10.0701 27.2266ZM9.1094 22.1091L7.77599 19.719L6.64071 20.3523L7.97412 22.7425L9.1094 22.1091ZM28.3051 15.7684C27.1915 15.2683 25.8808 14.3577 25.0205 12.8588L23.893 13.5059C24.9258 15.3054 26.484 16.3756 27.7725 16.9543L28.3051 15.7684ZM25.0246 12.866L23.7587 10.5935L22.623 11.2262L23.8889 13.4987L25.0246 12.866ZM23.7546 10.5863C21.0096 5.80334 14.9414 4.14674 10.1988 6.90125L10.8517 8.0254C14.963 5.63759 20.236 7.06711 22.6271 11.2334L23.7546 10.5863ZM28.5169 18.302C29.0576 17.988 29.193 17.3983 29.1382 16.952C29.0835 16.5064 28.8217 16.0004 28.3051 15.7684L27.7725 16.9543C27.7731 16.9545 27.7763 16.956 27.7819 16.9611C27.7879 16.9663 27.7964 16.9755 27.8057 16.9899C27.8256 17.0204 27.8421 17.0635 27.8479 17.1104C27.8537 17.1579 27.8461 17.188 27.8423 17.1976C27.8405 17.2022 27.8464 17.1881 27.864 17.1779L28.5169 18.302ZM7.77211 19.7121C5.417 15.6086 6.80238 10.3772 10.8517 8.0254L10.1988 6.90125C5.52277 9.61709 3.93811 15.6434 6.6446 20.3592L7.77211 19.7121ZM10.2143 27.4288C10.2331 27.4179 10.2502 27.4196 10.2469 27.4191C10.2376 27.4177 10.2076 27.4091 10.1687 27.3789C10.1304 27.3492 10.1008 27.3116 10.0842 27.2774C10.0682 27.2445 10.0699 27.2278 10.0701 27.2266L8.77992 27.0671C8.70952 27.6364 9.01323 28.1276 9.37141 28.4057C9.72974 28.6839 10.3162 28.8729 10.8672 28.5529L10.2143 27.4288ZM27.864 17.1779L10.2143 27.4288L10.8672 28.5529L28.5169 18.302L27.864 17.1779ZM20.0576 22.4596C20.9878 24.0805 20.371 26.269 18.566 27.3174L19.2189 28.4415C21.5768 27.0721 22.5081 24.1177 21.1851 21.8125L20.0576 22.4596ZM18.566 27.3174C16.7627 28.3647 14.576 27.8086 13.6474 26.1904L12.5199 26.8375C13.8445 29.1455 16.8592 29.812 19.2189 28.4415L18.566 27.3174ZM11.0234 3.8C11.6475 4.8873 11.2756 6.27585 10.1988 6.90125L10.8517 8.0254C12.5502 7.03891 13.1292 4.85749 12.1509 3.1529L11.0234 3.8ZM10.1988 6.90125C9.12429 7.52532 7.74854 7.15655 7.1258 6.0715L5.9983 6.7186C6.97789 8.42543 9.15091 9.01323 10.8517 8.0254L10.1988 6.90125ZM7.1258 6.0715C6.50178 4.9842 6.87365 3.59565 7.95044 2.97025L7.29754 1.8461C5.59902 2.83259 5.02 5.01401 5.9983 6.7186L7.1258 6.0715ZM7.95044 2.97025C9.02495 2.34617 10.4007 2.71495 11.0234 3.8L12.1509 3.1529C11.1714 1.44607 8.99834 0.858272 7.29754 1.8461L7.95044 2.97025ZM2.23477 14.2006C1.97074 12.3471 2.32408 10.473 3.28348 8.90966L2.17549 8.2297C1.04699 10.0686 0.644 12.2515 0.94776 14.3839L2.23477 14.2006ZM14.9349 2.15152C16.7997 2.11614 18.6034 2.6974 20.0211 3.84277L20.8381 2.83154C19.1659 1.48062 17.0588 0.810995 14.9102 0.851756L14.9349 2.15152Z" fill="#001649"/>
</svg>
