<?xml version="1.0" encoding="UTF-8"?>
<svg id="Lager_1" xmlns="http://www.w3.org/2000/svg" xmlns:xlink="http://www.w3.org/1999/xlink" version="1.1" viewBox="0 0 619.2 513">
  <!-- Generator: Adobe Illustrator 29.2.1, SVG Export Plug-In . SVG Version: 2.1.0 Build 116)  -->
  <defs>
    <style>
      .st0 {
        fill: none;
      }

      .st1 {
        fill: #183e4f;
      }
    </style>
  </defs>
  <g>
    <path class="st1" d="M251.3,263.4l13.2-83.2h-14.1c-6.6,0-15.1-3.7-17.6-10.5-.8-2.3-2.7-10.2,8.2-17.9,3.9-2.7,6.4-5.7,6.9-8,.5-2.4-.1-4.5-1.8-6.1-2.4-2.3-7.1-3.6-13.1-3.6-10.1,0-17.2,5.8-17.9,10-.5,3.1,1.9,5.6,4,7.2,6.3,4.7,7.8,11.5,3.9,17.9-4,6.6-12.7,10.9-22,11h-14.4c-1.2,8.1-20.8,132.3-22.3,142.1h77.8c.7-4.3,4.3-27.8,9.2-58.9h0Z"/>
    <g>
      <path class="st1" d="M160.1,351.1h31.9c13.6,0,16.9,6.9,15.9,13.2-.8,5.1-4.3,8.9-10.3,11.4,7.6,2.9,10.6,7.4,9.5,14.5-1.4,8.9-9.1,15.5-19.2,15.5h-36.3l8.5-54.6ZM181.2,373.7c6.2,0,9.1-3.3,9.7-7.2.6-4.2-1.3-7.1-7.5-7.1h-5.5l-2.2,14.3h5.5ZM177.8,397.2c6.4,0,10.1-2.6,11-7.9.7-4.6-1.9-7.3-8.1-7.3h-6.2l-2.4,15.3h5.7Z"/>
      <path class="st1" d="M251.8,406.1c-8.3.6-12.3-.3-14.3-3.9-4.4,2.7-9.3,4.1-14.5,4.1-9.4,0-12.7-4.9-11.8-10.3.4-2.6,1.9-5.1,4.3-7.2,5.2-4.5,18-5.1,23-8.5.4-3.8-1.1-5.2-5.8-5.2s-10.1,1.8-18,7.2l1.9-12.4c6.8-4.9,13.4-7.2,21-7.2s18.3,4,16.7,14.6l-1.9,12c-.7,4.2-.5,5.5,4.2,5.6l-4.8,11.2ZM237.4,387.2c-4.4,2.8-12.6,2.3-13.5,8.1-.4,2.7,1.3,4.7,4,4.7s5.8-1.1,8.4-2.9c-.2-1-.1-2,.2-3.9l.9-6Z"/>
      <path class="st1" d="M267.3,363.4h16.6l-.9,5.5c5.3-4.5,9.3-6.2,14.5-6.2,9.3,0,13.6,5.7,12.1,15l-4.3,27.9h-16.6l3.6-23.1c.7-4.2-.6-6.2-3.8-6.2s-5,1.4-7.3,4.5l-3.8,24.7h-16.6l6.5-42.1Z"/>
      <path class="st1" d="M322.6,351.1h16.6l-4.2,26.8,15.9-14.5h20.5l-20.4,18,16.4,24.2h-20.9l-12.6-19.6h-.2l-3,19.5h-16.6l8.5-54.4Z"/>
    </g>
    <path class="st1" d="M381.3,351.1h19.1l-8.4,54.5h-19.1l8.4-54.5Z"/>
    <path class="st1" d="M409.7,351.1h27.3c21.1,0,27.2,15.3,25.2,28-1.9,12.4-11.7,26.5-30.2,26.5h-30.8l8.5-54.5ZM427.4,392.6c9.3,0,14.4-4.6,15.9-14.3,1.1-7.2-1.1-14.3-11.4-14.3h-5.1l-4.4,28.6h5Z"/>
    <path class="st1" d="M355.9,107.5h-79.5l-10.6,67.3h13.5c7.4,0,14.4-3.4,17.4-8.3,1-1.6,1.4-3,1.4-4.3,0-2.8-1.9-4.9-3.8-6.3-5.2-3.9-6.3-8-6.3-10.9s0-1.1.1-1.6c1.1-7.1,10.7-14.8,23.4-14.8s13.4,1.8,16.9,5.1c3.1,2.9,4.3,7,3.4,11.3-1.1,5.1-6.2,9.3-9.1,11.4-7.7,5.4-6.7,10.1-6.2,11.5,1.6,4.2,7.7,6.9,12.4,6.9h20.6c28,.3,43,13.2,38.3,43.2-4.4,27.9-25.8,39.9-51.3,40.1l-10.1,64.4h14.9c62.9,0,114.3-40.4,124.4-104.2,12.5-79.2-37.8-110.8-109.8-110.8Z"/>
  </g>
  <rect class="st0" y="0" width="619.2" height="513"/>
</svg>