<svg width="36" height="36" viewBox="0 0 36 36" fill="none" xmlns="http://www.w3.org/2000/svg">
<path d="M13.5408 30.9909L13.2143 30.4288L13.5408 30.9909ZM12.425 30.1469L11.7799 30.0671L12.425 30.1469ZM11.5418 25.4258L10.9741 25.7425L10.978 25.7493L11.5418 25.4258ZM10.2084 23.0357L10.776 22.719L10.7721 22.7121L10.2084 23.0357ZM31.1904 20.7399L31.5169 21.302V21.302L31.1904 20.7399ZM31.0388 19.3614L31.3051 18.7684L31.3051 18.7684L31.0388 19.3614ZM27.4568 16.1824L26.8889 16.4987L26.893 16.5059L27.4568 16.1824ZM26.1909 13.9098L26.7587 13.5935L26.7546 13.5863L26.1909 13.9098ZM13.5253 10.4633L13.8517 11.0254L13.5253 10.4633ZM21.8924 30.8795L22.2189 31.4415L21.8924 30.8795ZM3.94776 17.3839C3.99839 17.7393 4.32753 17.9863 4.68293 17.9357C5.03833 17.8851 5.28539 17.556 5.23477 17.2006L3.94776 17.3839ZM6.28348 11.9097C6.47125 11.6037 6.37543 11.2034 6.06946 11.0157C5.7635 10.8279 5.36325 10.9237 5.17549 11.2297L6.28348 11.9097ZM17.9102 3.85176C17.5513 3.85857 17.2658 4.15505 17.2726 4.51397C17.2795 4.87289 17.5759 5.15833 17.9349 5.15152L17.9102 3.85176ZM23.0211 6.84277C23.3004 7.06837 23.7096 7.02488 23.9352 6.74563C24.1608 6.46639 24.1173 6.05713 23.8381 5.83154L23.0211 6.84277ZM13.0701 30.2266C13.2465 28.8004 13.1355 26.8969 12.1055 25.1022L10.978 25.7493C11.8281 27.2306 11.933 28.8289 11.7799 30.0671L13.0701 30.2266ZM12.1094 25.1091L10.776 22.719L9.64071 23.3523L10.9741 25.7425L12.1094 25.1091ZM31.3051 18.7684C30.1915 18.2683 28.8808 17.3577 28.0205 15.8588L26.893 16.5059C27.9258 18.3054 29.484 19.3756 30.7725 19.9543L31.3051 18.7684ZM28.0246 15.866L26.7587 13.5935L25.623 14.2262L26.8889 16.4987L28.0246 15.866ZM26.7546 13.5863C24.0096 8.80334 17.9414 7.14674 13.1988 9.90125L13.8517 11.0254C17.963 8.63759 23.236 10.0671 25.6271 14.2334L26.7546 13.5863ZM31.5169 21.302C32.0576 20.988 32.193 20.3983 32.1382 19.952C32.0835 19.5064 31.8217 19.0004 31.3051 18.7684L30.7725 19.9543C30.7731 19.9545 30.7763 19.956 30.7819 19.9611C30.7879 19.9663 30.7964 19.9755 30.8057 19.9899C30.8256 20.0204 30.8421 20.0635 30.8479 20.1104C30.8537 20.1579 30.8461 20.188 30.8423 20.1976C30.8405 20.2022 30.8464 20.1881 30.864 20.1779L31.5169 21.302ZM10.7721 22.7121C8.417 18.6086 9.80238 13.3772 13.8517 11.0254L13.1988 9.90125C8.52277 12.6171 6.93811 18.6434 9.6446 23.3592L10.7721 22.7121ZM13.2143 30.4288C13.2331 30.4179 13.2502 30.4196 13.2469 30.4191C13.2376 30.4177 13.2076 30.4091 13.1687 30.3789C13.1304 30.3492 13.1008 30.3116 13.0842 30.2774C13.0682 30.2445 13.0699 30.2278 13.0701 30.2266L11.7799 30.0671C11.7095 30.6364 12.0132 31.1276 12.3714 31.4057C12.7297 31.6839 13.3162 31.8729 13.8672 31.5529L13.2143 30.4288ZM30.864 20.1779L13.2143 30.4288L13.8672 31.5529L31.5169 21.302L30.864 20.1779ZM23.0576 25.4596C23.9878 27.0805 23.371 29.269 21.566 30.3174L22.2189 31.4415C24.5768 30.0721 25.5081 27.1177 24.1851 24.8125L23.0576 25.4596ZM21.566 30.3174C19.7627 31.3647 17.576 30.8086 16.6474 29.1904L15.5199 29.8375C16.8445 32.1455 19.8592 32.812 22.2189 31.4415L21.566 30.3174ZM14.0234 6.8C14.6475 7.8873 14.2756 9.27585 13.1988 9.90125L13.8517 11.0254C15.5502 10.0389 16.1292 7.85749 15.1509 6.1529L14.0234 6.8ZM13.1988 9.90125C12.1243 10.5253 10.7485 10.1565 10.1258 9.0715L8.9983 9.7186C9.97789 11.4254 12.1509 12.0132 13.8517 11.0254L13.1988 9.90125ZM10.1258 9.0715C9.50178 7.9842 9.87365 6.59565 10.9504 5.97025L10.2975 4.8461C8.59902 5.83259 8.02 8.01401 8.9983 9.7186L10.1258 9.0715ZM10.9504 5.97025C12.0249 5.34617 13.4007 5.71495 14.0234 6.8L15.1509 6.1529C14.1714 4.44607 11.9983 3.85827 10.2975 4.8461L10.9504 5.97025ZM5.23477 17.2006C4.97074 15.3471 5.32408 13.473 6.28348 11.9097L5.17549 11.2297C4.04699 13.0686 3.644 15.2515 3.94776 17.3839L5.23477 17.2006ZM17.9349 5.15152C19.7997 5.11614 21.6034 5.6974 23.0211 6.84277L23.8381 5.83154C22.1659 4.48062 20.0588 3.81099 17.9102 3.85176L17.9349 5.15152Z" fill="#FBFBD7"/>
</svg>
