<svg xmlns="http://www.w3.org/2000/svg" xmlns:xlink="http://www.w3.org/1999/xlink" width="500" zoomAndPan="magnify" viewBox="0 0 375 374.999991" height="500" preserveAspectRatio="xMidYMid meet" version="1.0"><defs><g/><clipPath id="05faea14f8"><path d="M 4.898438 4.898438 L 370.148438 4.898438 L 370.148438 370.148438 L 4.898438 370.148438 Z M 4.898438 4.898438 " clip-rule="nonzero"/></clipPath><clipPath id="a4c927c805"><path d="M 131 148 L 196 148 L 196 188.066406 L 131 188.066406 Z M 131 148 " clip-rule="nonzero"/></clipPath><clipPath id="62b40a1456"><path d="M 177 149 L 241 149 L 241 188.960938 L 177 188.960938 Z M 177 149 " clip-rule="nonzero"/></clipPath><clipPath id="a5cb0f6002"><path d="M 177 149 L 223 149 L 223 188.960938 L 177 188.960938 Z M 177 149 " clip-rule="nonzero"/></clipPath></defs><g clip-path="url(#05faea14f8)"><path fill="#001649" d="M 370.101562 187.5 C 370.101562 190.488281 370.027344 193.476562 369.882812 196.460938 C 369.734375 199.445312 369.515625 202.425781 369.222656 205.398438 C 368.929688 208.371094 368.5625 211.335938 368.125 214.292969 C 367.6875 217.25 367.175781 220.191406 366.59375 223.125 C 366.011719 226.054688 365.355469 228.96875 364.628906 231.867188 C 363.902344 234.765625 363.105469 237.648438 362.238281 240.507812 C 361.371094 243.367188 360.433594 246.203125 359.425781 249.015625 C 358.421875 251.832031 357.34375 254.617188 356.203125 257.378906 C 355.058594 260.140625 353.847656 262.871094 352.570312 265.570312 C 351.292969 268.273438 349.949219 270.941406 348.539062 273.578125 C 347.132812 276.214844 345.660156 278.8125 344.121094 281.375 C 342.585938 283.9375 340.988281 286.464844 339.328125 288.949219 C 337.667969 291.433594 335.945312 293.875 334.167969 296.277344 C 332.386719 298.675781 330.546875 301.03125 328.652344 303.339844 C 326.757812 305.652344 324.804688 307.914062 322.796875 310.128906 C 320.792969 312.34375 318.730469 314.503906 316.617188 316.617188 C 314.503906 318.730469 312.34375 320.792969 310.128906 322.796875 C 307.914062 324.804688 305.652344 326.757812 303.339844 328.652344 C 301.03125 330.546875 298.675781 332.386719 296.277344 334.167969 C 293.875 335.945312 291.433594 337.667969 288.949219 339.328125 C 286.464844 340.988281 283.9375 342.585938 281.375 344.121094 C 278.8125 345.660156 276.214844 347.132812 273.578125 348.539062 C 270.941406 349.949219 268.273438 351.292969 265.570312 352.570312 C 262.871094 353.847656 260.140625 355.058594 257.378906 356.203125 C 254.617188 357.34375 251.832031 358.421875 249.015625 359.425781 C 246.203125 360.433594 243.367188 361.371094 240.507812 362.238281 C 237.648438 363.105469 234.765625 363.902344 231.867188 364.628906 C 228.96875 365.355469 226.054688 366.011719 223.125 366.59375 C 220.191406 367.175781 217.25 367.6875 214.292969 368.125 C 211.335938 368.5625 208.371094 368.929688 205.398438 369.222656 C 202.425781 369.515625 199.445312 369.734375 196.460938 369.882812 C 193.476562 370.027344 190.488281 370.101562 187.5 370.101562 C 184.511719 370.101562 181.523438 370.027344 178.539062 369.882812 C 175.554688 369.734375 172.574219 369.515625 169.601562 369.222656 C 166.628906 368.929688 163.664062 368.5625 160.707031 368.125 C 157.75 367.6875 154.808594 367.175781 151.875 366.59375 C 148.945312 366.011719 146.03125 365.355469 143.132812 364.628906 C 140.234375 363.902344 137.351562 363.105469 134.492188 362.238281 C 131.632812 361.371094 128.796875 360.433594 125.984375 359.425781 C 123.167969 358.421875 120.382812 357.34375 117.621094 356.203125 C 114.859375 355.058594 112.128906 353.847656 109.425781 352.570312 C 106.726562 351.292969 104.058594 349.949219 101.421875 348.539062 C 98.785156 347.132812 96.1875 345.660156 93.625 344.121094 C 91.0625 342.585938 88.535156 340.988281 86.050781 339.328125 C 83.566406 337.667969 81.125 335.945312 78.722656 334.167969 C 76.324219 332.386719 73.96875 330.546875 71.660156 328.652344 C 69.347656 326.757812 67.085938 324.804688 64.871094 322.796875 C 62.65625 320.792969 60.496094 318.730469 58.382812 316.617188 C 56.269531 314.503906 54.207031 312.34375 52.199219 310.128906 C 50.195312 307.914062 48.242188 305.652344 46.347656 303.339844 C 44.453125 301.03125 42.613281 298.675781 40.832031 296.277344 C 39.054688 293.875 37.332031 291.433594 35.671875 288.949219 C 34.011719 286.464844 32.414062 283.9375 30.878906 281.375 C 29.339844 278.8125 27.867188 276.214844 26.460938 273.578125 C 25.050781 270.941406 23.707031 268.273438 22.429688 265.570312 C 21.152344 262.871094 19.941406 260.140625 18.796875 257.378906 C 17.65625 254.617188 16.578125 251.832031 15.574219 249.015625 C 14.566406 246.203125 13.628906 243.367188 12.761719 240.507812 C 11.894531 237.648438 11.097656 234.765625 10.371094 231.867188 C 9.644531 228.96875 8.988281 226.054688 8.40625 223.125 C 7.824219 220.191406 7.3125 217.25 6.875 214.292969 C 6.4375 211.335938 6.070312 208.371094 5.777344 205.398438 C 5.484375 202.425781 5.265625 199.445312 5.117188 196.460938 C 4.972656 193.476562 4.898438 190.488281 4.898438 187.5 C 4.898438 184.511719 4.972656 181.523438 5.117188 178.539062 C 5.265625 175.554688 5.484375 172.574219 5.777344 169.601562 C 6.070312 166.628906 6.4375 163.664062 6.875 160.707031 C 7.3125 157.75 7.824219 154.808594 8.40625 151.875 C 8.988281 148.945312 9.644531 146.03125 10.371094 143.132812 C 11.097656 140.234375 11.894531 137.351562 12.761719 134.492188 C 13.628906 131.632812 14.566406 128.796875 15.574219 125.984375 C 16.578125 123.167969 17.65625 120.382812 18.796875 117.621094 C 19.941406 114.859375 21.152344 112.128906 22.429688 109.429688 C 23.707031 106.726562 25.050781 104.058594 26.460938 101.421875 C 27.867188 98.785156 29.339844 96.1875 30.878906 93.625 C 32.414062 91.0625 34.011719 88.535156 35.671875 86.050781 C 37.332031 83.566406 39.054688 81.125 40.832031 78.722656 C 42.613281 76.324219 44.453125 73.96875 46.347656 71.660156 C 48.242188 69.347656 50.195312 67.085938 52.199219 64.871094 C 54.207031 62.65625 56.269531 60.496094 58.382812 58.382812 C 60.496094 56.269531 62.65625 54.207031 64.871094 52.199219 C 67.085938 50.195312 69.347656 48.242188 71.660156 46.347656 C 73.96875 44.453125 76.324219 42.613281 78.722656 40.832031 C 81.125 39.054688 83.566406 37.332031 86.050781 35.671875 C 88.535156 34.011719 91.0625 32.414062 93.625 30.878906 C 96.1875 29.339844 98.785156 27.867188 101.421875 26.460938 C 104.058594 25.050781 106.726562 23.707031 109.425781 22.429688 C 112.128906 21.152344 114.859375 19.941406 117.621094 18.796875 C 120.382812 17.65625 123.167969 16.578125 125.984375 15.574219 C 128.796875 14.566406 131.632812 13.628906 134.492188 12.761719 C 137.351562 11.894531 140.234375 11.097656 143.132812 10.371094 C 146.03125 9.644531 148.945312 8.988281 151.875 8.40625 C 154.808594 7.824219 157.75 7.3125 160.707031 6.875 C 163.664062 6.4375 166.628906 6.070312 169.601562 5.777344 C 172.574219 5.484375 175.554688 5.265625 178.539062 5.117188 C 181.523438 4.972656 184.511719 4.898438 187.5 4.898438 C 190.488281 4.898438 193.476562 4.972656 196.460938 5.117188 C 199.445312 5.265625 202.425781 5.484375 205.398438 5.777344 C 208.371094 6.070312 211.335938 6.4375 214.292969 6.875 C 217.25 7.3125 220.191406 7.824219 223.125 8.40625 C 226.054688 8.988281 228.96875 9.644531 231.867188 10.371094 C 234.765625 11.097656 237.648438 11.894531 240.507812 12.761719 C 243.367188 13.628906 246.203125 14.566406 249.015625 15.574219 C 251.832031 16.578125 254.617188 17.65625 257.378906 18.796875 C 260.140625 19.941406 262.871094 21.152344 265.570312 22.429688 C 268.273438 23.707031 270.941406 25.050781 273.578125 26.460938 C 276.214844 27.867188 278.8125 29.339844 281.375 30.878906 C 283.9375 32.414062 286.464844 34.011719 288.949219 35.671875 C 291.433594 37.332031 293.875 39.054688 296.277344 40.832031 C 298.675781 42.613281 301.03125 44.453125 303.339844 46.347656 C 305.652344 48.242188 307.914062 50.195312 310.128906 52.199219 C 312.34375 54.207031 314.503906 56.269531 316.617188 58.382812 C 318.730469 60.496094 320.792969 62.65625 322.796875 64.871094 C 324.804688 67.085938 326.757812 69.347656 328.652344 71.660156 C 330.546875 73.96875 332.386719 76.324219 334.167969 78.722656 C 335.945312 81.125 337.667969 83.566406 339.328125 86.050781 C 340.988281 88.535156 342.585938 91.0625 344.121094 93.625 C 345.660156 96.1875 347.132812 98.785156 348.539062 101.421875 C 349.949219 104.058594 351.292969 106.726562 352.570312 109.429688 C 353.847656 112.128906 355.058594 114.859375 356.203125 117.621094 C 357.34375 120.382812 358.421875 123.167969 359.425781 125.984375 C 360.433594 128.796875 361.371094 131.632812 362.238281 134.492188 C 363.105469 137.351562 363.902344 140.234375 364.628906 143.132812 C 365.355469 146.03125 366.011719 148.945312 366.59375 151.875 C 367.175781 154.808594 367.6875 157.75 368.125 160.707031 C 368.5625 163.664062 368.929688 166.628906 369.222656 169.601562 C 369.515625 172.574219 369.734375 175.554688 369.882812 178.539062 C 370.027344 181.523438 370.101562 184.511719 370.101562 187.5 Z M 370.101562 187.5 " fill-opacity="1" fill-rule="nonzero"/></g><path fill="#001649" d="M 185.40625 122.367188 C 185.40625 123.058594 185.371094 123.746094 185.304688 124.4375 C 185.238281 125.125 185.136719 125.808594 185 126.488281 C 184.867188 127.164062 184.699219 127.835938 184.496094 128.496094 C 184.296875 129.160156 184.0625 129.808594 183.796875 130.449219 C 183.535156 131.085938 183.238281 131.710938 182.914062 132.324219 C 182.585938 132.933594 182.230469 133.523438 181.847656 134.101562 C 181.460938 134.675781 181.050781 135.230469 180.613281 135.765625 C 180.171875 136.300781 179.710938 136.8125 179.21875 137.300781 C 178.730469 137.789062 178.21875 138.253906 177.683594 138.691406 C 177.148438 139.132812 176.59375 139.542969 176.019531 139.925781 C 175.445312 140.3125 174.851562 140.667969 174.242188 140.992188 C 173.632812 141.320312 173.007812 141.613281 172.367188 141.878906 C 171.730469 142.144531 171.078125 142.375 170.417969 142.578125 C 169.753906 142.777344 169.085938 142.945312 168.40625 143.082031 C 167.726562 143.214844 167.042969 143.316406 166.355469 143.386719 C 165.667969 143.453125 164.976562 143.488281 164.285156 143.488281 C 163.59375 143.488281 162.902344 143.453125 162.214844 143.386719 C 161.527344 143.316406 160.84375 143.214844 160.164062 143.082031 C 159.484375 142.945312 158.816406 142.777344 158.152344 142.578125 C 157.492188 142.375 156.839844 142.144531 156.203125 141.878906 C 155.5625 141.613281 154.9375 141.320312 154.328125 140.992188 C 153.71875 140.667969 153.125 140.3125 152.550781 139.925781 C 151.976562 139.542969 151.421875 139.132812 150.886719 138.691406 C 150.351562 138.253906 149.839844 137.789062 149.351562 137.300781 C 148.859375 136.8125 148.398438 136.300781 147.957031 135.765625 C 147.519531 135.230469 147.109375 134.675781 146.722656 134.101562 C 146.339844 133.523438 145.984375 132.933594 145.65625 132.324219 C 145.332031 131.710938 145.035156 131.085938 144.769531 130.449219 C 144.507812 129.808594 144.273438 129.160156 144.074219 128.496094 C 143.871094 127.835938 143.703125 127.164062 143.570312 126.488281 C 143.433594 125.808594 143.332031 125.125 143.265625 124.4375 C 143.199219 123.746094 143.164062 123.058594 143.164062 122.367188 C 143.164062 121.675781 143.199219 120.984375 143.265625 120.296875 C 143.332031 119.605469 143.433594 118.921875 143.570312 118.246094 C 143.703125 117.566406 143.871094 116.898438 144.074219 116.234375 C 144.273438 115.574219 144.507812 114.921875 144.769531 114.28125 C 145.035156 113.644531 145.332031 113.019531 145.65625 112.410156 C 145.984375 111.800781 146.339844 111.207031 146.722656 110.632812 C 147.109375 110.054688 147.519531 109.5 147.957031 108.964844 C 148.398438 108.433594 148.859375 107.917969 149.351562 107.429688 C 149.839844 106.941406 150.351562 106.476562 150.886719 106.039062 C 151.421875 105.601562 151.976562 105.1875 152.550781 104.804688 C 153.125 104.417969 153.71875 104.0625 154.328125 103.738281 C 154.9375 103.414062 155.5625 103.117188 156.203125 102.851562 C 156.839844 102.585938 157.492188 102.355469 158.152344 102.152344 C 158.816406 101.953125 159.484375 101.785156 160.164062 101.648438 C 160.84375 101.515625 161.527344 101.414062 162.214844 101.347656 C 162.902344 101.277344 163.59375 101.246094 164.285156 101.246094 C 164.976562 101.246094 165.667969 101.277344 166.355469 101.347656 C 167.042969 101.414062 167.726562 101.515625 168.40625 101.648438 C 169.085938 101.785156 169.753906 101.953125 170.417969 102.152344 C 171.078125 102.355469 171.730469 102.585938 172.367188 102.851562 C 173.007812 103.117188 173.632812 103.414062 174.242188 103.738281 C 174.851562 104.0625 175.445312 104.417969 176.019531 104.804688 C 176.59375 105.1875 177.148438 105.601562 177.683594 106.039062 C 178.21875 106.476562 178.730469 106.941406 179.21875 107.429688 C 179.710938 107.917969 180.171875 108.433594 180.613281 108.964844 C 181.050781 109.5 181.460938 110.054688 181.847656 110.632812 C 182.230469 111.207031 182.585938 111.800781 182.914062 112.410156 C 183.238281 113.019531 183.535156 113.644531 183.796875 114.28125 C 184.0625 114.921875 184.296875 115.574219 184.496094 116.234375 C 184.699219 116.898438 184.867188 117.566406 185 118.246094 C 185.136719 118.921875 185.238281 119.605469 185.304688 120.296875 C 185.371094 120.984375 185.40625 121.675781 185.40625 122.367188 Z M 185.40625 122.367188 " fill-opacity="1" fill-rule="nonzero"/><g clip-path="url(#a4c927c805)"><path fill="#001649" d="M 187.90625 188.023438 C 192.429688 188.050781 195.953125 183.988281 195.148438 179.539062 C 192.003906 162.085938 179.105469 148.984375 163.601562 148.898438 C 148.09375 148.816406 135.054688 161.777344 131.71875 179.195312 C 130.871094 183.636719 134.351562 187.734375 138.871094 187.757812 Z M 187.90625 188.023438 " fill-opacity="1" fill-rule="nonzero"/></g><path fill="#e88684" d="M 150.132812 178.3125 C 146.171875 170.386719 162.515625 171.378906 172.417969 164.441406 C 182.152344 157.628906 172.601562 150.601562 172.261719 150.359375 C 169.453125 149.402344 166.5625 148.917969 163.59375 148.898438 C 148.09375 148.816406 135.054688 161.777344 131.71875 179.195312 C 130.871094 183.636719 134.351562 187.734375 138.871094 187.757812 L 160.121094 187.875 C 157.851562 185.15625 152.421875 182.890625 150.132812 178.3125 Z M 150.132812 178.3125 " fill-opacity="1" fill-rule="nonzero"/><path fill="#e88684" d="M 167.03125 101.429688 C 166.265625 101.328125 165.496094 101.269531 164.71875 101.253906 C 163.945312 101.238281 163.171875 101.265625 162.402344 101.335938 C 161.632812 101.40625 160.867188 101.515625 160.105469 101.667969 C 159.347656 101.824219 158.601562 102.019531 157.863281 102.253906 C 157.125 102.488281 156.402344 102.765625 155.695312 103.082031 C 154.988281 103.394531 154.300781 103.75 153.632812 104.140625 C 152.964844 104.53125 152.320312 104.957031 151.699219 105.417969 C 151.074219 105.878906 150.480469 106.375 149.914062 106.902344 C 149.347656 107.429688 148.8125 107.984375 148.304688 108.570312 C 147.800781 109.15625 147.328125 109.769531 146.886719 110.410156 C 146.449219 111.046875 146.046875 111.707031 145.683594 112.390625 C 145.316406 113.070312 144.988281 113.773438 144.699219 114.488281 C 144.410156 115.207031 144.164062 115.941406 143.953125 116.6875 C 143.746094 117.433594 143.578125 118.1875 143.453125 118.949219 C 143.328125 119.714844 143.246094 120.484375 143.203125 121.257812 C 143.164062 122.03125 143.164062 122.804688 143.210938 123.574219 C 143.253906 124.347656 143.339844 125.117188 143.46875 125.882812 C 143.597656 126.644531 143.769531 127.398438 143.980469 128.144531 C 144.191406 128.886719 144.441406 129.617188 144.734375 130.335938 C 145.027344 131.054688 145.359375 131.753906 145.726562 132.433594 C 146.09375 133.113281 146.5 133.773438 146.941406 134.40625 C 147.382812 135.042969 147.859375 135.652344 148.367188 136.238281 C 148.875 136.820312 149.414062 137.375 149.984375 137.902344 C 150.554688 138.425781 151.148438 138.917969 151.773438 139.375 C 152.398438 139.835938 153.042969 140.257812 153.714844 140.648438 C 154.382812 141.035156 155.074219 141.386719 155.78125 141.695312 C 156.492188 142.007812 157.214844 142.28125 157.953125 142.515625 C 158.691406 142.746094 159.441406 142.9375 160.199219 143.085938 C 160.960938 143.238281 161.726562 143.347656 162.496094 143.410156 C 163.269531 143.476562 164.039062 143.5 164.8125 143.480469 C 165.589844 143.460938 166.359375 143.402344 167.125 143.296875 C 167.894531 143.195312 168.652344 143.046875 169.402344 142.859375 C 165.984375 130.761719 150.132812 132.742188 148.648438 121.347656 C 146.589844 105.5625 160.1875 102.476562 167.03125 101.429688 Z M 167.03125 101.429688 " fill-opacity="1" fill-rule="nonzero"/><path fill="#fcfcd8" d="M 230.878906 123.261719 C 230.878906 123.953125 230.847656 124.640625 230.777344 125.332031 C 230.710938 126.019531 230.609375 126.703125 230.472656 127.378906 C 230.339844 128.058594 230.171875 128.730469 229.96875 129.390625 C 229.769531 130.054688 229.535156 130.703125 229.273438 131.34375 C 229.007812 131.980469 228.710938 132.605469 228.386719 133.214844 C 228.058594 133.828125 227.703125 134.417969 227.320312 134.996094 C 226.9375 135.570312 226.523438 136.125 226.085938 136.660156 C 225.648438 137.195312 225.183594 137.707031 224.695312 138.195312 C 224.203125 138.683594 223.691406 139.148438 223.15625 139.585938 C 222.621094 140.027344 222.066406 140.4375 221.492188 140.820312 C 220.917969 141.207031 220.324219 141.5625 219.714844 141.886719 C 219.105469 142.214844 218.480469 142.507812 217.839844 142.773438 C 217.203125 143.039062 216.550781 143.269531 215.890625 143.472656 C 215.226562 143.671875 214.558594 143.839844 213.878906 143.976562 C 213.199219 144.109375 212.515625 144.210938 211.828125 144.28125 C 211.140625 144.347656 210.449219 144.382812 209.757812 144.382812 C 209.066406 144.382812 208.375 144.347656 207.6875 144.28125 C 207 144.210938 206.316406 144.109375 205.636719 143.976562 C 204.960938 143.839844 204.289062 143.671875 203.628906 143.472656 C 202.964844 143.269531 202.316406 143.039062 201.675781 142.773438 C 201.035156 142.507812 200.410156 142.214844 199.800781 141.886719 C 199.191406 141.5625 198.597656 141.207031 198.023438 140.820312 C 197.449219 140.4375 196.894531 140.027344 196.359375 139.585938 C 195.824219 139.148438 195.3125 138.683594 194.824219 138.195312 C 194.335938 137.707031 193.871094 137.195312 193.429688 136.660156 C 192.992188 136.125 192.582031 135.570312 192.195312 134.996094 C 191.8125 134.417969 191.457031 133.828125 191.132812 133.214844 C 190.804688 132.605469 190.507812 131.980469 190.246094 131.34375 C 189.980469 130.703125 189.746094 130.054688 189.546875 129.390625 C 189.34375 128.730469 189.179688 128.058594 189.042969 127.378906 C 188.90625 126.703125 188.804688 126.019531 188.738281 125.332031 C 188.671875 124.640625 188.636719 123.953125 188.636719 123.261719 C 188.636719 122.570312 188.671875 121.878906 188.738281 121.191406 C 188.804688 120.5 188.90625 119.816406 189.042969 119.140625 C 189.179688 118.460938 189.34375 117.789062 189.546875 117.128906 C 189.746094 116.46875 189.980469 115.816406 190.246094 115.175781 C 190.507812 114.539062 190.804688 113.914062 191.132812 113.304688 C 191.457031 112.695312 191.8125 112.101562 192.195312 111.527344 C 192.582031 110.949219 192.992188 110.394531 193.429688 109.859375 C 193.871094 109.324219 194.335938 108.8125 194.824219 108.324219 C 195.3125 107.835938 195.824219 107.371094 196.359375 106.933594 C 196.894531 106.496094 197.449219 106.082031 198.023438 105.699219 C 198.597656 105.3125 199.191406 104.957031 199.800781 104.632812 C 200.410156 104.308594 201.035156 104.011719 201.675781 103.746094 C 202.316406 103.480469 202.964844 103.25 203.628906 103.046875 C 204.289062 102.847656 204.960938 102.679688 205.636719 102.542969 C 206.316406 102.410156 207 102.308594 207.6875 102.242188 C 208.375 102.171875 209.066406 102.140625 209.757812 102.140625 C 210.449219 102.140625 211.140625 102.171875 211.828125 102.242188 C 212.515625 102.308594 213.199219 102.410156 213.878906 102.542969 C 214.558594 102.679688 215.226562 102.847656 215.890625 103.046875 C 216.550781 103.25 217.203125 103.480469 217.839844 103.746094 C 218.480469 104.011719 219.105469 104.308594 219.714844 104.632812 C 220.324219 104.957031 220.917969 105.3125 221.492188 105.699219 C 222.066406 106.082031 222.621094 106.496094 223.15625 106.933594 C 223.691406 107.371094 224.203125 107.835938 224.695312 108.324219 C 225.183594 108.8125 225.648438 109.324219 226.085938 109.859375 C 226.523438 110.394531 226.9375 110.949219 227.320312 111.527344 C 227.703125 112.101562 228.058594 112.695312 228.386719 113.304688 C 228.710938 113.914062 229.007812 114.539062 229.273438 115.175781 C 229.535156 115.816406 229.769531 116.46875 229.96875 117.128906 C 230.171875 117.789062 230.339844 118.460938 230.472656 119.140625 C 230.609375 119.816406 230.710938 120.5 230.777344 121.191406 C 230.847656 121.878906 230.878906 122.570312 230.878906 123.261719 Z M 230.878906 123.261719 " fill-opacity="1" fill-rule="nonzero"/><g clip-path="url(#62b40a1456)"><path fill="#fcfcd8" d="M 233.378906 188.917969 C 237.902344 188.941406 241.425781 184.882812 240.621094 180.433594 C 237.476562 162.980469 224.578125 149.878906 209.074219 149.792969 C 193.570312 149.710938 180.527344 162.671875 177.191406 180.089844 C 176.34375 184.53125 179.824219 188.628906 184.34375 188.652344 Z M 233.378906 188.917969 " fill-opacity="1" fill-rule="nonzero"/></g><g clip-path="url(#a5cb0f6002)"><path fill="#e88684" d="M 195.609375 179.207031 C 191.644531 171.28125 207.992188 172.273438 217.894531 165.335938 C 227.625 158.523438 218.074219 151.496094 217.738281 151.25 C 214.925781 150.296875 212.035156 149.8125 209.066406 149.792969 C 193.566406 149.710938 180.527344 162.671875 177.191406 180.089844 C 176.34375 184.53125 179.824219 188.628906 184.34375 188.652344 L 205.59375 188.769531 C 203.328125 186.050781 197.894531 183.785156 195.609375 179.207031 Z M 195.609375 179.207031 " fill-opacity="1" fill-rule="nonzero"/></g><path fill="#e88684" d="M 212.507812 102.324219 C 211.738281 102.222656 210.96875 102.164062 210.195312 102.148438 C 209.417969 102.132812 208.648438 102.160156 207.875 102.230469 C 207.105469 102.300781 206.339844 102.410156 205.582031 102.5625 C 204.820312 102.71875 204.074219 102.914062 203.335938 103.148438 C 202.597656 103.382812 201.875 103.660156 201.167969 103.972656 C 200.460938 104.289062 199.773438 104.644531 199.105469 105.035156 C 198.4375 105.425781 197.792969 105.851562 197.171875 106.3125 C 196.550781 106.773438 195.957031 107.269531 195.386719 107.796875 C 194.820312 108.324219 194.285156 108.878906 193.777344 109.464844 C 193.273438 110.050781 192.800781 110.664062 192.363281 111.300781 C 191.921875 111.941406 191.519531 112.601562 191.15625 113.285156 C 190.789062 113.964844 190.460938 114.667969 190.171875 115.382812 C 189.882812 116.101562 189.636719 116.835938 189.425781 117.582031 C 189.21875 118.328125 189.050781 119.082031 188.925781 119.84375 C 188.800781 120.609375 188.71875 121.378906 188.675781 122.152344 C 188.636719 122.925781 188.636719 123.699219 188.683594 124.46875 C 188.726562 125.242188 188.8125 126.011719 188.941406 126.773438 C 189.070312 127.539062 189.242188 128.292969 189.453125 129.039062 C 189.664062 129.78125 189.917969 130.511719 190.207031 131.230469 C 190.5 131.949219 190.832031 132.644531 191.199219 133.328125 C 191.570312 134.007812 191.972656 134.667969 192.414062 135.300781 C 192.855469 135.9375 193.332031 136.546875 193.839844 137.132812 C 194.347656 137.714844 194.886719 138.269531 195.457031 138.796875 C 196.027344 139.320312 196.621094 139.8125 197.246094 140.269531 C 197.871094 140.730469 198.515625 141.152344 199.1875 141.542969 C 199.855469 141.929688 200.546875 142.277344 201.253906 142.589844 C 201.964844 142.902344 202.6875 143.175781 203.425781 143.40625 C 204.164062 143.640625 204.914062 143.832031 205.671875 143.980469 C 206.433594 144.132812 207.199219 144.238281 207.96875 144.304688 C 208.742188 144.371094 209.515625 144.394531 210.289062 144.375 C 211.0625 144.355469 211.832031 144.296875 212.601562 144.191406 C 213.367188 144.089844 214.125 143.941406 214.878906 143.753906 C 211.457031 131.65625 195.609375 133.636719 194.121094 122.242188 C 192.0625 106.457031 205.660156 103.371094 212.507812 102.324219 Z M 212.507812 102.324219 " fill-opacity="1" fill-rule="nonzero"/><g fill="#fcfcd8" fill-opacity="1"><g transform="translate(45.514712, 260.613833)"><g><path d="M 24.671875 -39.375 C 24.492188 -32.269531 24.425781 -25.253906 24.46875 -18.328125 C 24.519531 -11.410156 24.632812 -5.4375 24.8125 -0.40625 C 24.90625 0.132812 24.390625 0.671875 23.265625 1.203125 C 22.140625 1.742188 20.878906 2.0625 19.484375 2.15625 C 18.085938 2.25 16.804688 2.003906 15.640625 1.421875 C 14.472656 0.835938 13.976562 -0.265625 14.15625 -1.890625 C 13.976562 -4.398438 13.890625 -6.644531 13.890625 -8.625 C 13.890625 -10.601562 13.890625 -12.875 13.890625 -15.4375 C 13.890625 -18 13.890625 -21.125 13.890625 -24.8125 C 13.890625 -28.5 13.890625 -33.304688 13.890625 -39.234375 L 6.875 -39.234375 C 5.164062 -39.234375 3.972656 -39.75 3.296875 -40.78125 C 2.628906 -41.820312 2.335938 -42.96875 2.421875 -44.21875 C 2.515625 -45.476562 2.894531 -46.625 3.5625 -47.65625 C 4.238281 -48.695312 5.117188 -49.21875 6.203125 -49.21875 L 14.15625 -49.21875 C 14.519531 -53.894531 15.171875 -58.320312 16.109375 -62.5 C 17.054688 -66.675781 18.316406 -70.316406 19.890625 -73.421875 C 21.460938 -76.523438 23.4375 -79 25.8125 -80.84375 C 28.195312 -82.6875 31.054688 -83.609375 34.390625 -83.609375 C 37.085938 -83.609375 39.445312 -83.15625 41.46875 -82.25 C 43.488281 -81.351562 45.191406 -80.253906 46.578125 -78.953125 C 47.972656 -77.648438 49.078125 -76.253906 49.890625 -74.765625 C 50.703125 -73.285156 51.285156 -71.960938 51.640625 -70.796875 C 52.453125 -69.171875 52.566406 -67.660156 51.984375 -66.265625 C 51.398438 -64.878906 50.546875 -63.847656 49.421875 -63.171875 C 48.296875 -62.492188 47.082031 -62.269531 45.78125 -62.5 C 44.476562 -62.726562 43.507812 -63.648438 42.875 -65.265625 C 42.15625 -67.597656 41.164062 -69.394531 39.90625 -70.65625 C 38.65625 -71.914062 36.859375 -72.59375 34.515625 -72.6875 C 33.078125 -72.6875 31.796875 -72.097656 30.671875 -70.921875 C 29.546875 -69.753906 28.601562 -68.113281 27.84375 -66 C 27.082031 -63.894531 26.453125 -61.398438 25.953125 -58.515625 C 25.460938 -55.640625 25.082031 -52.539062 24.8125 -49.21875 L 40.1875 -49.21875 C 41.800781 -48.945312 42.898438 -48.226562 43.484375 -47.0625 C 44.066406 -45.894531 44.242188 -44.722656 44.015625 -43.546875 C 43.796875 -42.378906 43.234375 -41.347656 42.328125 -40.453125 C 41.429688 -39.554688 40.359375 -39.242188 39.109375 -39.515625 Z M 24.671875 -39.375 "/></g></g></g><g fill="#fcfcd8" fill-opacity="1"><g transform="translate(99.714316, 260.613833)"><g><path d="M 38.03125 -31.953125 C 36.675781 -33.210938 35.164062 -34.335938 33.5 -35.328125 C 31.84375 -36.316406 30.070312 -36.8125 28.1875 -36.8125 C 26.289062 -36.8125 24.535156 -36.425781 22.921875 -35.65625 C 21.304688 -34.894531 19.867188 -33.863281 18.609375 -32.5625 C 17.347656 -31.257812 16.359375 -29.753906 15.640625 -28.046875 C 14.921875 -26.335938 14.5625 -24.539062 14.5625 -22.65625 L 14.5625 -3.5 C 14.46875 -2.0625 13.925781 -0.875 12.9375 0.0625 C 11.957031 1.007812 10.859375 1.550781 9.640625 1.6875 C 8.429688 1.820312 7.265625 1.53125 6.140625 0.8125 C 5.015625 0.09375 4.316406 -1.207031 4.046875 -3.09375 L 4.1875 -43.6875 C 4.1875 -45.394531 4.703125 -46.582031 5.734375 -47.25 C 6.765625 -47.925781 7.910156 -48.21875 9.171875 -48.125 C 10.429688 -48.039062 11.578125 -47.660156 12.609375 -46.984375 C 13.640625 -46.316406 14.15625 -45.441406 14.15625 -44.359375 L 14.296875 -42.203125 C 16.273438 -43.734375 18.410156 -44.898438 20.703125 -45.703125 C 22.992188 -46.515625 25.441406 -46.921875 28.046875 -46.921875 C 31.816406 -46.921875 35.273438 -46.132812 38.421875 -44.5625 C 41.578125 -42.988281 44.097656 -40.71875 45.984375 -37.75 C 46.523438 -36.851562 46.660156 -35.820312 46.390625 -34.65625 C 46.117188 -33.488281 45.578125 -32.5 44.765625 -31.6875 C 43.953125 -30.875 42.960938 -30.398438 41.796875 -30.265625 C 40.628906 -30.128906 39.375 -30.691406 38.03125 -31.953125 Z M 38.03125 -31.953125 "/></g></g></g><g fill="#fcfcd8" fill-opacity="1"><g transform="translate(148.790574, 260.613833)"><g><path d="M 39.640625 -13.75 C 40.535156 -14.738281 41.65625 -15.234375 43 -15.234375 C 44.351562 -15.234375 45.566406 -14.894531 46.640625 -14.21875 C 47.722656 -13.550781 48.46875 -12.65625 48.875 -11.53125 C 49.28125 -10.40625 48.988281 -9.210938 48 -7.953125 C 45.488281 -4.804688 42.632812 -2.445312 39.4375 -0.875 C 36.25 0.695312 33.015625 1.59375 29.734375 1.8125 C 26.453125 2.039062 23.238281 1.640625 20.09375 0.609375 C 16.945312 -0.421875 14.132812 -2.015625 11.65625 -4.171875 C 9.1875 -6.335938 7.207031 -9.015625 5.71875 -12.203125 C 4.238281 -15.390625 3.5 -18.960938 3.5 -22.921875 C 3.5 -26.160156 4.101562 -29.238281 5.3125 -32.15625 C 6.53125 -35.082031 8.21875 -37.644531 10.375 -39.84375 C 12.539062 -42.050781 15.0625 -43.804688 17.9375 -45.109375 C 20.8125 -46.410156 23.867188 -47.101562 27.109375 -47.1875 C 29.890625 -47.28125 32.5625 -46.921875 35.125 -46.109375 C 37.6875 -45.304688 39.976562 -44.140625 42 -42.609375 C 44.019531 -41.078125 45.703125 -39.1875 47.046875 -36.9375 C 48.398438 -34.695312 49.300781 -32.179688 49.75 -29.390625 C 50.207031 -26.335938 49.738281 -23.929688 48.34375 -22.171875 C 46.945312 -20.421875 43.867188 -19.546875 39.109375 -19.546875 L 13.625 -19.6875 C 14.15625 -16.894531 15.34375 -14.460938 17.1875 -12.390625 C 19.03125 -10.328125 21.1875 -8.914062 23.65625 -8.15625 C 26.132812 -7.394531 28.789062 -7.414062 31.625 -8.21875 C 34.457031 -9.03125 37.128906 -10.875 39.640625 -13.75 Z M 26.96875 -37.078125 C 24.363281 -36.992188 22.023438 -36.253906 19.953125 -34.859375 C 17.890625 -33.460938 16.273438 -31.640625 15.109375 -29.390625 L 39.90625 -29.125 C 39.457031 -30.832031 38.785156 -32.203125 37.890625 -33.234375 C 36.992188 -34.273438 35.957031 -35.085938 34.78125 -35.671875 C 33.613281 -36.253906 32.351562 -36.632812 31 -36.8125 C 29.65625 -36.988281 28.3125 -37.078125 26.96875 -37.078125 Z M 26.96875 -37.078125 "/></g></g></g><g fill="#fcfcd8" fill-opacity="1"><g transform="translate(202.585703, 260.613833)"><g><path d="M 37.625 -2.015625 C 37.800781 -9.753906 37.617188 -15.914062 37.078125 -20.5 C 36.535156 -25.082031 35.789062 -28.585938 34.84375 -31.015625 C 33.90625 -33.441406 32.828125 -35.015625 31.609375 -35.734375 C 30.398438 -36.453125 29.257812 -36.8125 28.1875 -36.8125 C 26.289062 -36.8125 24.535156 -36.425781 22.921875 -35.65625 C 21.304688 -34.894531 19.867188 -33.863281 18.609375 -32.5625 C 17.347656 -31.257812 16.359375 -29.753906 15.640625 -28.046875 C 14.921875 -26.335938 14.5625 -24.539062 14.5625 -22.65625 L 14.5625 -3.5 C 14.46875 -2.0625 13.925781 -0.875 12.9375 0.0625 C 11.957031 1.007812 10.859375 1.550781 9.640625 1.6875 C 8.429688 1.820312 7.265625 1.53125 6.140625 0.8125 C 5.015625 0.09375 4.316406 -1.207031 4.046875 -3.09375 L 4.1875 -43.6875 C 4.1875 -45.394531 4.703125 -46.582031 5.734375 -47.25 C 6.765625 -47.925781 7.910156 -48.21875 9.171875 -48.125 C 10.429688 -48.039062 11.578125 -47.660156 12.609375 -46.984375 C 13.640625 -46.316406 14.15625 -45.441406 14.15625 -44.359375 L 14.296875 -42.203125 C 16.273438 -43.734375 18.410156 -44.898438 20.703125 -45.703125 C 22.992188 -46.515625 25.441406 -46.921875 28.046875 -46.921875 C 32.722656 -46.921875 36.363281 -45.816406 38.96875 -43.609375 C 41.570312 -41.410156 43.523438 -38.359375 44.828125 -34.453125 C 46.140625 -30.546875 46.925781 -25.867188 47.1875 -20.421875 C 47.457031 -14.984375 47.59375 -9.078125 47.59375 -2.703125 C 47.59375 -0.992188 47.078125 0.195312 46.046875 0.875 C 45.015625 1.550781 43.867188 1.84375 42.609375 1.75 C 41.347656 1.664062 40.203125 1.285156 39.171875 0.609375 C 38.140625 -0.0664062 37.625 -0.941406 37.625 -2.015625 Z M 37.625 -2.015625 "/></g></g></g><g fill="#fcfcd8" fill-opacity="1"><g transform="translate(253.414685, 260.613833)"><g><path d="M 4.3125 -77.9375 C 4.582031 -79.550781 5.300781 -80.671875 6.46875 -81.296875 C 7.632812 -81.929688 8.847656 -82.203125 10.109375 -82.109375 C 11.367188 -82.023438 12.492188 -81.578125 13.484375 -80.765625 C 14.472656 -79.960938 14.96875 -78.972656 14.96875 -77.796875 L 15.234375 -3.78125 C 15.234375 -2.070312 14.71875 -0.878906 13.6875 -0.203125 C 12.65625 0.472656 11.507812 0.765625 10.25 0.671875 C 8.988281 0.585938 7.84375 0.207031 6.8125 -0.46875 C 5.78125 -1.144531 5.265625 -2.019531 5.265625 -3.09375 Z M 4.3125 -77.9375 "/></g></g></g><g fill="#fcfcd8" fill-opacity="1"><g transform="translate(273.099118, 260.613833)"><g><path d="M 26.421875 0.140625 L 3.375 -40.859375 C 3.007812 -42.472656 3.234375 -43.796875 4.046875 -44.828125 C 4.859375 -45.867188 5.867188 -46.585938 7.078125 -46.984375 C 8.296875 -47.390625 9.507812 -47.4375 10.71875 -47.125 C 11.9375 -46.8125 12.769531 -46.113281 13.21875 -45.03125 L 31.421875 -13.75 L 42.75 -45.3125 C 43.644531 -46.75 44.742188 -47.554688 46.046875 -47.734375 C 47.347656 -47.910156 48.582031 -47.707031 49.75 -47.125 C 50.925781 -46.539062 51.828125 -45.707031 52.453125 -44.625 C 53.078125 -43.550781 53.164062 -42.472656 52.71875 -41.390625 L 29.125 21.984375 C 28.582031 23.503906 27.703125 24.398438 26.484375 24.671875 C 25.273438 24.941406 24.109375 24.804688 22.984375 24.265625 C 21.867188 23.734375 20.945312 22.972656 20.21875 21.984375 C 19.5 20.992188 19.320312 20.003906 19.6875 19.015625 Z M 26.421875 0.140625 "/></g></g></g></svg>