<svg width="372" height="145" viewBox="0 0 372 145" fill="none" xmlns="http://www.w3.org/2000/svg">
<path d="M30.5827 58.985C30.3431 68.459 30.2545 77.8132 30.3118 87.0475C30.3795 96.2715 30.5306 104.235 30.7702 110.943C30.8952 111.662 30.2077 112.381 28.7077 113.089C27.2077 113.808 25.5254 114.235 23.666 114.36C21.8014 114.485 20.0931 114.157 18.541 113.381C16.9837 112.6 16.3222 111.131 16.5618 108.964C16.3222 105.62 16.2077 102.626 16.2077 99.985C16.2077 97.3496 16.2077 94.3184 16.2077 90.9017C16.2077 87.485 16.2077 83.3184 16.2077 78.4017C16.2077 73.485 16.2077 67.0788 16.2077 59.1725H6.85348C4.57223 59.1725 2.98369 58.485 2.08265 57.11C1.19202 55.7246 0.8014 54.1934 0.915983 52.5267C1.04098 50.8496 1.54619 49.3184 2.43682 47.9434C3.33786 46.5579 4.50973 45.86 5.95765 45.86H16.5618C17.0462 39.6257 17.916 33.7246 19.166 28.1517C20.4264 22.584 22.1087 17.7298 24.2077 13.5892C26.3014 9.45378 28.9368 6.15169 32.1035 3.69336C35.2806 1.23503 39.0931 0.00585938 43.541 0.00585938C47.1347 0.00585938 50.2806 0.610026 52.9785 1.81836C55.6712 3.01628 57.942 4.47982 59.791 6.21419C61.6504 7.95378 63.1243 9.81315 64.2077 11.7975C65.291 13.7715 66.067 15.5371 66.541 17.0892C67.6243 19.2559 67.7754 21.2715 66.9993 23.1309C66.2181 24.9798 65.0827 26.3548 63.5827 27.2559C62.0827 28.1621 60.4629 28.459 58.7285 28.1517C56.9889 27.8496 55.6972 26.6204 54.8535 24.4642C53.8952 21.3548 52.5722 18.959 50.8952 17.2767C49.2285 15.5996 46.8327 14.6934 43.7077 14.5684C41.791 14.5684 40.0827 15.3548 38.5827 16.9225C37.0827 18.4798 35.8222 20.6673 34.8118 23.485C33.7962 26.2923 32.9577 29.6204 32.291 33.4642C31.6347 37.2975 31.1295 41.4329 30.7702 45.86H51.2702C53.4212 46.2246 54.8847 47.1829 55.666 48.735C56.442 50.2923 56.6764 51.8548 56.3743 53.4225C56.0827 54.9798 55.3327 56.3548 54.1243 57.5475C52.9264 58.7454 51.4993 59.1621 49.8327 58.7975L30.5827 58.985Z" fill="#FCFCD8"/>
<path d="M120.66 68.8811C118.853 67.2041 116.837 65.7041 114.618 64.3811C112.41 63.0634 110.046 62.402 107.535 62.402C105.004 62.402 102.665 62.9176 100.514 63.9436C98.3581 64.9593 96.4414 66.3343 94.7643 68.0686C93.082 69.8082 91.7643 71.8134 90.806 74.0895C89.8477 76.3707 89.3685 78.7666 89.3685 81.277V106.819C89.2435 108.735 88.5195 110.319 87.2018 111.569C85.8945 112.829 84.431 113.553 82.806 113.735C81.1914 113.912 79.6393 113.527 78.1393 112.569C76.6393 111.61 75.707 109.876 75.3477 107.36L75.5352 53.2353C75.5352 50.9593 76.2227 49.3759 77.5977 48.4853C78.9727 47.5843 80.4987 47.1936 82.181 47.3186C83.8581 47.4332 85.3893 47.9384 86.7643 48.8395C88.1393 49.7301 88.8268 50.8968 88.8268 52.3395L89.0143 55.2145C91.6497 53.1728 94.4987 51.6207 97.556 50.5478C100.608 49.4645 103.874 48.9228 107.348 48.9228C112.374 48.9228 116.983 49.9749 121.181 52.0686C125.389 54.1676 128.749 57.1936 131.264 61.152C131.983 62.3499 132.165 63.7249 131.806 65.277C131.441 66.8343 130.723 68.152 129.639 69.2353C128.556 70.3186 127.233 70.9541 125.681 71.1311C124.124 71.3134 122.452 70.5634 120.66 68.8811Z" fill="#FCFCD8"/>
<path d="M188.242 93.1516C189.435 91.8339 190.93 91.1724 192.721 91.1724C194.523 91.1724 196.143 91.6255 197.576 92.5266C199.018 93.4172 200.013 94.6099 200.555 96.1099C201.096 97.6099 200.706 99.2036 199.388 100.881C196.039 105.079 192.232 108.224 187.971 110.318C183.721 112.412 179.409 113.61 175.034 113.902C170.659 114.204 166.372 113.672 162.18 112.297C157.982 110.922 154.232 108.797 150.93 105.922C147.638 103.037 144.997 99.4641 143.013 95.2141C141.039 90.9641 140.055 86.2036 140.055 80.9224C140.055 76.6047 140.857 72.5005 142.471 68.6099C144.096 64.7089 146.346 61.2922 149.221 58.3599C152.107 55.4172 155.471 53.0786 159.305 51.3391C163.138 49.6047 167.211 48.6828 171.534 48.5682C175.242 48.4432 178.805 48.9224 182.221 50.0057C185.638 51.0786 188.69 52.6307 191.388 54.6724C194.081 56.7141 196.326 59.2349 198.117 62.2349C199.919 65.2245 201.122 68.5786 201.721 72.2974C202.331 76.3703 201.706 79.5786 199.846 81.9224C197.982 84.2557 193.878 85.4224 187.534 85.4224L153.555 85.2349C154.263 88.9589 155.846 92.2036 158.305 94.9641C160.763 97.7141 163.638 99.5995 166.93 100.61C170.232 101.626 173.773 101.599 177.555 100.527C181.331 99.4432 184.893 96.9849 188.242 93.1516ZM171.346 62.0474C167.872 62.162 164.753 63.1464 161.992 65.0057C159.242 66.8703 157.086 69.2974 155.534 72.2974L188.596 72.6516C187.997 70.3755 187.102 68.5474 185.909 67.1724C184.711 65.787 183.331 64.7036 181.763 63.9224C180.206 63.1464 178.523 62.6411 176.721 62.4016C174.93 62.1672 173.138 62.0474 171.346 62.0474Z" fill="#FCFCD8"/>
<path d="M257.281 108.798C257.515 98.4801 257.27 90.2666 256.551 84.152C255.827 78.0426 254.833 73.3707 253.572 70.1311C252.322 66.8968 250.885 64.7978 249.26 63.8395C247.645 62.8811 246.124 62.402 244.697 62.402C242.166 62.402 239.827 62.9176 237.676 63.9436C235.52 64.9593 233.604 66.3343 231.926 68.0686C230.244 69.8082 228.926 71.8134 227.968 74.0895C227.01 76.3707 226.531 78.7666 226.531 81.277V106.819C226.406 108.735 225.682 110.319 224.364 111.569C223.057 112.829 221.593 113.553 219.968 113.735C218.354 113.912 216.801 113.527 215.301 112.569C213.801 111.61 212.869 109.876 212.51 107.36L212.697 53.2353C212.697 50.9593 213.385 49.3759 214.76 48.4853C216.135 47.5843 217.661 47.1936 219.343 47.3186C221.02 47.4332 222.551 47.9384 223.926 48.8395C225.301 49.7301 225.989 50.8968 225.989 52.3395L226.176 55.2145C228.812 53.1728 231.661 51.6207 234.718 50.5478C237.77 49.4645 241.036 48.9228 244.51 48.9228C250.744 48.9228 255.598 50.3968 259.072 53.3395C262.541 56.2718 265.145 60.3395 266.885 65.5478C268.635 70.7561 269.682 76.9957 270.031 84.2561C270.39 91.5061 270.572 99.3811 270.572 107.881C270.572 110.162 269.885 111.746 268.51 112.652C267.135 113.553 265.604 113.944 263.926 113.819C262.244 113.704 260.718 113.199 259.343 112.298C257.968 111.397 257.281 110.23 257.281 108.798Z" fill="#FCFCD8"/>
<path d="M280.637 7.56839C280.996 5.41735 281.954 3.92256 283.512 3.08922C285.064 2.24547 286.684 1.88089 288.366 2.00589C290.043 2.12047 291.543 2.71422 292.866 3.79756C294.184 4.87047 294.845 6.18818 294.845 7.75589L295.199 106.443C295.199 108.725 294.512 110.313 293.137 111.214C291.762 112.115 290.23 112.506 288.553 112.381C286.871 112.266 285.345 111.761 283.97 110.86C282.595 109.959 281.908 108.792 281.908 107.36L280.637 7.56839Z" fill="#FCFCD8"/>
<path d="M336.361 111.673L305.632 57.006C305.142 54.855 305.444 53.0894 306.528 51.7144C307.611 50.3289 308.955 49.3706 310.569 48.8394C312.194 48.2977 313.809 48.2352 315.423 48.6519C317.048 49.0685 318.158 50.0008 318.757 51.4435L343.028 93.1519L358.132 51.0685C359.324 49.1519 360.788 48.0789 362.528 47.8394C364.262 47.605 365.908 47.8758 367.465 48.6519C369.033 49.4331 370.236 50.5425 371.069 51.9852C371.903 53.4175 372.017 54.855 371.423 56.2977L339.965 140.798C339.241 142.824 338.069 144.016 336.444 144.381C334.83 144.74 333.278 144.558 331.778 143.839C330.288 143.131 329.059 142.115 328.09 140.798C327.132 139.475 326.892 138.157 327.382 136.839L336.361 111.673Z" fill="#FCFCD8"/>
</svg>
