<svg xmlns="http://www.w3.org/2000/svg" xmlns:xlink="http://www.w3.org/1999/xlink" width="500" zoomAndPan="magnify" viewBox="0 0 375 374.999991" height="500" preserveAspectRatio="xMidYMid meet" version="1.0"><defs><clipPath id="b625641ae0"><path d="M 74 196 L 207 196 L 207 277.851562 L 74 277.851562 Z M 74 196 " clip-rule="nonzero"/></clipPath><clipPath id="22f73a81fa"><path d="M 74 196 L 169 196 L 169 277.851562 L 74 277.851562 Z M 74 196 " clip-rule="nonzero"/></clipPath><clipPath id="3de2291aab"><path d="M 168 198 L 301 198 L 301 279.707031 L 168 279.707031 Z M 168 198 " clip-rule="nonzero"/></clipPath></defs><path fill="#001649" d="M 185.964844 141.324219 C 185.964844 142.757812 185.894531 144.1875 185.753906 145.617188 C 185.613281 147.042969 185.402344 148.460938 185.121094 149.867188 C 184.84375 151.273438 184.492188 152.660156 184.078125 154.035156 C 183.660156 155.40625 183.179688 156.753906 182.628906 158.078125 C 182.082031 159.40625 181.46875 160.699219 180.792969 161.964844 C 180.117188 163.230469 179.378906 164.457031 178.582031 165.648438 C 177.785156 166.84375 176.933594 167.992188 176.023438 169.101562 C 175.113281 170.210938 174.152344 171.269531 173.136719 172.285156 C 172.125 173.300781 171.0625 174.261719 169.953125 175.171875 C 168.84375 176.082031 167.695312 176.933594 166.503906 177.730469 C 165.308594 178.527344 164.082031 179.265625 162.816406 179.941406 C 161.550781 180.617188 160.257812 181.226562 158.933594 181.777344 C 157.609375 182.324219 156.257812 182.808594 154.886719 183.226562 C 153.515625 183.640625 152.125 183.988281 150.71875 184.269531 C 149.3125 184.546875 147.894531 184.757812 146.46875 184.898438 C 145.039062 185.039062 143.609375 185.109375 142.175781 185.109375 C 140.742188 185.109375 139.3125 185.039062 137.882812 184.898438 C 136.457031 184.757812 135.039062 184.546875 133.632812 184.269531 C 132.226562 183.988281 130.835938 183.640625 129.464844 183.226562 C 128.09375 182.808594 126.746094 182.324219 125.417969 181.777344 C 124.09375 181.226562 122.800781 180.617188 121.535156 179.941406 C 120.269531 179.265625 119.042969 178.527344 117.847656 177.730469 C 116.65625 176.933594 115.507812 176.082031 114.398438 175.171875 C 113.289062 174.261719 112.226562 173.300781 111.214844 172.285156 C 110.199219 171.269531 109.238281 170.210938 108.328125 169.101562 C 107.417969 167.992188 106.566406 166.84375 105.769531 165.648438 C 104.972656 164.457031 104.234375 163.230469 103.558594 161.964844 C 102.882812 160.699219 102.269531 159.40625 101.722656 158.078125 C 101.171875 156.753906 100.691406 155.40625 100.273438 154.035156 C 99.859375 152.660156 99.511719 151.273438 99.230469 149.867188 C 98.949219 148.460938 98.742188 147.042969 98.601562 145.617188 C 98.460938 144.1875 98.390625 142.757812 98.390625 141.324219 C 98.390625 139.890625 98.460938 138.457031 98.601562 137.03125 C 98.742188 135.605469 98.949219 134.1875 99.230469 132.78125 C 99.511719 131.375 99.859375 129.984375 100.273438 128.613281 C 100.691406 127.242188 101.171875 125.890625 101.722656 124.566406 C 102.269531 123.242188 102.882812 121.949219 103.558594 120.683594 C 104.234375 119.417969 104.972656 118.1875 105.769531 116.996094 C 106.566406 115.804688 107.417969 114.652344 108.328125 113.546875 C 109.238281 112.4375 110.199219 111.375 111.214844 110.363281 C 112.226562 109.347656 113.289062 108.386719 114.398438 107.476562 C 115.507812 106.566406 116.65625 105.710938 117.847656 104.917969 C 119.042969 104.121094 120.269531 103.382812 121.535156 102.707031 C 122.800781 102.03125 124.09375 101.417969 125.417969 100.871094 C 126.746094 100.320312 128.09375 99.839844 129.464844 99.421875 C 130.835938 99.003906 132.226562 98.65625 133.632812 98.378906 C 135.039062 98.097656 136.457031 97.886719 137.882812 97.746094 C 139.3125 97.605469 140.742188 97.535156 142.175781 97.535156 C 143.609375 97.535156 145.039062 97.605469 146.46875 97.746094 C 147.894531 97.886719 149.3125 98.097656 150.71875 98.378906 C 152.125 98.65625 153.515625 99.003906 154.886719 99.421875 C 156.257812 99.839844 157.609375 100.320312 158.933594 100.871094 C 160.257812 101.417969 161.550781 102.03125 162.816406 102.707031 C 164.082031 103.382812 165.308594 104.121094 166.503906 104.917969 C 167.695312 105.710938 168.84375 106.566406 169.953125 107.476562 C 171.0625 108.386719 172.125 109.347656 173.136719 110.363281 C 174.152344 111.375 175.113281 112.4375 176.023438 113.546875 C 176.933594 114.652344 177.785156 115.804688 178.582031 116.996094 C 179.378906 118.1875 180.117188 119.417969 180.792969 120.683594 C 181.46875 121.949219 182.082031 123.242188 182.628906 124.566406 C 183.179688 125.890625 183.660156 127.242188 184.078125 128.613281 C 184.492188 129.984375 184.84375 131.375 185.121094 132.78125 C 185.402344 134.1875 185.613281 135.605469 185.753906 137.03125 C 185.894531 138.457031 185.964844 139.890625 185.964844 141.324219 Z M 185.964844 141.324219 " fill-opacity="1" fill-rule="nonzero"/><g clip-path="url(#b625641ae0)"><path fill="#001649" d="M 191.148438 277.441406 C 200.519531 277.492188 207.824219 269.070312 206.160156 259.847656 C 199.640625 223.667969 172.898438 196.503906 140.753906 196.332031 C 108.613281 196.15625 81.582031 223.027344 74.664062 259.136719 C 72.902344 268.34375 80.117188 276.839844 89.488281 276.890625 Z M 191.148438 277.441406 " fill-opacity="1" fill-rule="nonzero"/></g><g clip-path="url(#22f73a81fa)"><path fill="#e88684" d="M 112.839844 257.308594 C 104.625 240.878906 138.511719 242.929688 159.039062 228.554688 C 179.21875 214.429688 159.417969 199.859375 158.714844 199.351562 C 152.890625 197.375 146.898438 196.367188 140.746094 196.332031 C 108.613281 196.15625 81.582031 223.027344 74.664062 259.136719 C 72.902344 268.34375 80.117188 276.839844 89.488281 276.890625 L 133.542969 277.128906 C 128.839844 271.492188 117.585938 266.800781 112.839844 257.308594 Z M 112.839844 257.308594 " fill-opacity="1" fill-rule="nonzero"/></g><path fill="#e88684" d="M 147.875 97.917969 C 147.078125 97.816406 146.28125 97.734375 145.480469 97.671875 C 144.679688 97.613281 143.878906 97.574219 143.078125 97.558594 C 142.277344 97.542969 141.476562 97.546875 140.671875 97.574219 C 139.871094 97.605469 139.070312 97.652344 138.273438 97.726562 C 137.472656 97.796875 136.679688 97.890625 135.886719 98.007812 C 135.089844 98.121094 134.300781 98.257812 133.515625 98.417969 C 132.730469 98.578125 131.949219 98.757812 131.171875 98.960938 C 130.394531 99.160156 129.625 99.382812 128.863281 99.628906 C 128.097656 99.875 127.339844 100.136719 126.59375 100.425781 C 125.84375 100.710938 125.101562 101.015625 124.371094 101.34375 C 123.636719 101.667969 122.914062 102.015625 122.199219 102.382812 C 121.488281 102.746094 120.785156 103.132812 120.09375 103.539062 C 119.398438 103.941406 118.71875 104.367188 118.050781 104.808594 C 117.382812 105.25 116.726562 105.710938 116.082031 106.191406 C 115.4375 106.667969 114.808594 107.164062 114.191406 107.675781 C 113.574219 108.191406 112.972656 108.71875 112.386719 109.265625 C 111.796875 109.8125 111.226562 110.371094 110.667969 110.949219 C 110.113281 111.527344 109.574219 112.121094 109.046875 112.726562 C 108.523438 113.335938 108.019531 113.957031 107.527344 114.589844 C 107.039062 115.226562 106.566406 115.875 106.113281 116.535156 C 105.65625 117.195312 105.222656 117.867188 104.804688 118.554688 C 104.386719 119.238281 103.988281 119.933594 103.609375 120.640625 C 103.230469 121.347656 102.871094 122.0625 102.53125 122.789062 C 102.191406 123.515625 101.875 124.253906 101.574219 124.996094 C 101.273438 125.742188 100.996094 126.492188 100.738281 127.25 C 100.480469 128.011719 100.242188 128.777344 100.027344 129.550781 C 99.8125 130.320312 99.617188 131.097656 99.445312 131.882812 C 99.269531 132.664062 99.121094 133.453125 98.988281 134.246094 C 98.859375 135.035156 98.753906 135.828125 98.667969 136.628906 C 98.578125 137.425781 98.515625 138.222656 98.472656 139.023438 C 98.429688 139.824219 98.410156 140.625 98.414062 141.429688 C 98.414062 142.230469 98.4375 143.03125 98.484375 143.832031 C 98.53125 144.632812 98.597656 145.433594 98.6875 146.230469 C 98.777344 147.027344 98.890625 147.820312 99.023438 148.609375 C 99.15625 149.402344 99.308594 150.1875 99.488281 150.96875 C 99.664062 151.753906 99.863281 152.53125 100.082031 153.300781 C 100.300781 154.074219 100.539062 154.835938 100.800781 155.59375 C 101.0625 156.355469 101.34375 157.105469 101.648438 157.847656 C 101.949219 158.589844 102.273438 159.324219 102.617188 160.046875 C 102.957031 160.773438 103.320312 161.488281 103.703125 162.195312 C 104.085938 162.898438 104.484375 163.59375 104.90625 164.277344 C 105.328125 164.957031 105.765625 165.628906 106.222656 166.289062 C 106.679688 166.949219 107.15625 167.59375 107.648438 168.226562 C 108.140625 168.859375 108.648438 169.476562 109.175781 170.082031 C 109.703125 170.6875 110.246094 171.277344 110.804688 171.851562 C 111.363281 172.425781 111.9375 172.984375 112.527344 173.53125 C 113.117188 174.074219 113.722656 174.601562 114.339844 175.109375 C 114.960938 175.621094 115.59375 176.113281 116.238281 176.589844 C 116.882812 177.0625 117.542969 177.519531 118.214844 177.960938 C 118.882812 178.398438 119.566406 178.820312 120.261719 179.222656 C 120.953125 179.625 121.660156 180.007812 122.375 180.371094 C 123.089844 180.734375 123.8125 181.074219 124.546875 181.398438 C 125.28125 181.722656 126.023438 182.023438 126.773438 182.308594 C 127.523438 182.589844 128.28125 182.851562 129.046875 183.09375 C 129.8125 183.332031 130.585938 183.554688 131.359375 183.75 C 132.136719 183.949219 132.921875 184.125 133.707031 184.28125 C 134.492188 184.4375 135.285156 184.570312 136.078125 184.683594 C 136.871094 184.796875 137.667969 184.886719 138.46875 184.953125 C 139.265625 185.023438 140.066406 185.066406 140.867188 185.09375 C 141.671875 185.117188 142.472656 185.117188 143.273438 185.097656 C 144.074219 185.078125 144.875 185.039062 145.675781 184.972656 C 146.476562 184.910156 147.273438 184.824219 148.066406 184.71875 C 148.863281 184.609375 149.652344 184.480469 150.441406 184.328125 C 151.226562 184.179688 152.011719 184.003906 152.789062 183.8125 C 145.699219 158.730469 112.839844 162.835938 109.757812 139.214844 C 105.492188 106.484375 133.679688 100.09375 147.875 97.917969 Z M 147.875 97.917969 " fill-opacity="1" fill-rule="nonzero"/><path fill="#fcfcd8" d="M 280.238281 143.175781 C 280.238281 144.613281 280.167969 146.042969 280.027344 147.46875 C 279.886719 148.898438 279.675781 150.3125 279.394531 151.71875 C 279.117188 153.125 278.769531 154.515625 278.351562 155.886719 C 277.933594 157.261719 277.453125 158.609375 276.902344 159.933594 C 276.355469 161.257812 275.742188 162.554688 275.066406 163.820312 C 274.390625 165.082031 273.65625 166.3125 272.859375 167.503906 C 272.0625 168.695312 271.207031 169.847656 270.296875 170.957031 C 269.386719 172.0625 268.425781 173.125 267.414062 174.140625 C 266.398438 175.152344 265.335938 176.117188 264.226562 177.023438 C 263.121094 177.933594 261.96875 178.789062 260.777344 179.585938 C 259.585938 180.382812 258.355469 181.117188 257.089844 181.792969 C 255.828125 182.46875 254.53125 183.082031 253.207031 183.632812 C 251.882812 184.179688 250.535156 184.664062 249.160156 185.078125 C 247.789062 185.496094 246.398438 185.84375 244.992188 186.125 C 243.585938 186.402344 242.167969 186.613281 240.742188 186.753906 C 239.316406 186.894531 237.882812 186.964844 236.449219 186.964844 C 235.015625 186.964844 233.585938 186.894531 232.160156 186.753906 C 230.730469 186.613281 229.3125 186.402344 227.90625 186.125 C 226.5 185.84375 225.113281 185.496094 223.738281 185.078125 C 222.367188 184.664062 221.019531 184.179688 219.695312 183.632812 C 218.367188 183.082031 217.074219 182.46875 215.808594 181.792969 C 214.542969 181.117188 213.316406 180.382812 212.125 179.585938 C 210.929688 178.789062 209.78125 177.933594 208.671875 177.023438 C 207.5625 176.117188 206.503906 175.152344 205.488281 174.140625 C 204.472656 173.125 203.511719 172.0625 202.601562 170.957031 C 201.691406 169.847656 200.839844 168.695312 200.042969 167.503906 C 199.246094 166.3125 198.511719 165.082031 197.832031 163.820312 C 197.15625 162.554688 196.546875 161.257812 195.996094 159.933594 C 195.449219 158.609375 194.964844 157.261719 194.550781 155.886719 C 194.132812 154.515625 193.785156 153.125 193.503906 151.71875 C 193.226562 150.3125 193.015625 148.898438 192.875 147.46875 C 192.734375 146.042969 192.664062 144.613281 192.664062 143.175781 C 192.664062 141.742188 192.734375 140.3125 192.875 138.886719 C 193.015625 137.457031 193.226562 136.042969 193.503906 134.636719 C 193.785156 133.230469 194.132812 131.839844 194.550781 130.46875 C 194.964844 129.09375 195.449219 127.746094 195.996094 126.421875 C 196.546875 125.097656 197.15625 123.800781 197.832031 122.535156 C 198.511719 121.273438 199.246094 120.042969 200.042969 118.851562 C 200.839844 117.660156 201.691406 116.507812 202.601562 115.398438 C 203.511719 114.292969 204.472656 113.230469 205.488281 112.214844 C 206.503906 111.203125 207.5625 110.238281 208.671875 109.328125 C 209.78125 108.421875 210.929688 107.566406 212.125 106.769531 C 213.316406 105.972656 214.542969 105.238281 215.808594 104.5625 C 217.074219 103.886719 218.367188 103.273438 219.695312 102.722656 C 221.019531 102.175781 222.367188 101.691406 223.738281 101.277344 C 225.113281 100.859375 226.5 100.511719 227.90625 100.230469 C 229.3125 99.953125 230.730469 99.742188 232.160156 99.601562 C 233.585938 99.460938 235.015625 99.390625 236.449219 99.390625 C 237.882812 99.390625 239.316406 99.460938 240.742188 99.601562 C 242.167969 99.742188 243.585938 99.953125 244.992188 100.230469 C 246.398438 100.511719 247.789062 100.859375 249.160156 101.277344 C 250.535156 101.691406 251.882812 102.175781 253.207031 102.722656 C 254.53125 103.273438 255.828125 103.886719 257.089844 104.5625 C 258.355469 105.238281 259.585938 105.972656 260.777344 106.769531 C 261.96875 107.566406 263.121094 108.421875 264.226562 109.328125 C 265.335938 110.238281 266.398438 111.203125 267.414062 112.214844 C 268.425781 113.230469 269.386719 114.292969 270.296875 115.398438 C 271.207031 116.507812 272.0625 117.660156 272.859375 118.851562 C 273.65625 120.042969 274.390625 121.273438 275.066406 122.535156 C 275.742188 123.800781 276.355469 125.097656 276.902344 126.421875 C 277.453125 127.746094 277.933594 129.09375 278.351562 130.46875 C 278.769531 131.839844 279.117188 133.230469 279.394531 134.636719 C 279.675781 136.042969 279.886719 137.457031 280.027344 138.886719 C 280.167969 140.3125 280.238281 141.742188 280.238281 143.175781 Z M 280.238281 143.175781 " fill-opacity="1" fill-rule="nonzero"/><g clip-path="url(#3de2291aab)"><path fill="#fcfcd8" d="M 285.421875 279.296875 C 294.792969 279.34375 302.097656 270.925781 300.4375 261.703125 C 293.914062 225.519531 267.171875 198.359375 235.03125 198.183594 C 202.886719 198.011719 175.855469 224.882812 168.9375 260.988281 C 167.175781 270.199219 174.390625 278.695312 183.765625 278.742188 Z M 285.421875 279.296875 " fill-opacity="1" fill-rule="nonzero"/></g><path fill="#e88684" d="M 207.113281 259.164062 C 198.898438 242.730469 232.785156 244.785156 253.316406 230.40625 C 273.492188 216.285156 253.691406 201.714844 252.988281 201.207031 C 247.164062 199.230469 241.171875 198.222656 235.019531 198.183594 C 202.886719 198.011719 175.855469 224.882812 168.9375 260.988281 C 167.175781 270.199219 174.390625 278.695312 183.765625 278.742188 L 227.816406 278.984375 C 223.117188 273.347656 211.859375 268.652344 207.113281 259.164062 Z M 207.113281 259.164062 " fill-opacity="1" fill-rule="nonzero"/><path fill="#e88684" d="M 242.148438 99.773438 C 241.351562 99.667969 240.554688 99.585938 239.753906 99.527344 C 238.957031 99.46875 238.15625 99.429688 237.351562 99.414062 C 236.550781 99.398438 235.75 99.402344 234.949219 99.429688 C 234.144531 99.457031 233.347656 99.507812 232.546875 99.578125 C 231.75 99.652344 230.953125 99.746094 230.160156 99.859375 C 229.367188 99.976562 228.574219 100.113281 227.789062 100.273438 C 227.003906 100.429688 226.222656 100.613281 225.445312 100.8125 C 224.671875 101.015625 223.898438 101.238281 223.136719 101.484375 C 222.371094 101.726562 221.617188 101.992188 220.867188 102.277344 C 220.117188 102.5625 219.375 102.871094 218.644531 103.195312 C 217.910156 103.523438 217.1875 103.871094 216.476562 104.234375 C 215.761719 104.601562 215.058594 104.988281 214.367188 105.390625 C 213.671875 105.796875 212.992188 106.222656 212.324219 106.664062 C 211.65625 107.105469 211 107.566406 210.355469 108.042969 C 209.710938 108.523438 209.082031 109.019531 208.464844 109.53125 C 207.847656 110.042969 207.246094 110.574219 206.660156 111.121094 C 206.070312 111.664062 205.5 112.226562 204.941406 112.804688 C 204.386719 113.382812 203.847656 113.972656 203.324219 114.582031 C 202.796875 115.1875 202.292969 115.808594 201.800781 116.445312 C 201.3125 117.078125 200.839844 117.726562 200.386719 118.386719 C 199.933594 119.050781 199.496094 119.722656 199.078125 120.40625 C 198.660156 121.09375 198.261719 121.789062 197.882812 122.496094 C 197.503906 123.203125 197.144531 123.917969 196.804688 124.644531 C 196.464844 125.371094 196.148438 126.105469 195.847656 126.851562 C 195.550781 127.59375 195.269531 128.347656 195.011719 129.105469 C 194.753906 129.863281 194.519531 130.632812 194.300781 131.402344 C 194.085938 132.175781 193.890625 132.953125 193.71875 133.738281 C 193.546875 134.519531 193.394531 135.308594 193.265625 136.097656 C 193.132812 136.890625 193.027344 137.683594 192.941406 138.480469 C 192.855469 139.277344 192.789062 140.078125 192.746094 140.878906 C 192.707031 141.679688 192.683594 142.480469 192.6875 143.28125 C 192.6875 144.085938 192.710938 144.886719 192.757812 145.6875 C 192.804688 146.488281 192.871094 147.285156 192.960938 148.082031 C 193.050781 148.878906 193.164062 149.675781 193.296875 150.464844 C 193.429688 151.253906 193.585938 152.042969 193.761719 152.824219 C 193.9375 153.605469 194.136719 154.382812 194.355469 155.15625 C 194.574219 155.925781 194.8125 156.691406 195.074219 157.449219 C 195.335938 158.207031 195.617188 158.957031 195.921875 159.699219 C 196.222656 160.445312 196.546875 161.175781 196.890625 161.902344 C 197.230469 162.628906 197.59375 163.34375 197.976562 164.046875 C 198.359375 164.753906 198.761719 165.445312 199.179688 166.128906 C 199.601562 166.8125 200.039062 167.484375 200.496094 168.144531 C 200.953125 168.800781 201.429688 169.449219 201.921875 170.082031 C 202.414062 170.714844 202.921875 171.332031 203.449219 171.9375 C 203.976562 172.542969 204.519531 173.132812 205.078125 173.707031 C 205.636719 174.28125 206.210938 174.839844 206.800781 175.382812 C 207.390625 175.925781 207.996094 176.453125 208.613281 176.964844 C 209.234375 177.472656 209.867188 177.96875 210.511719 178.441406 C 211.15625 178.917969 211.816406 179.375 212.488281 179.816406 C 213.15625 180.253906 213.839844 180.675781 214.535156 181.078125 C 215.230469 181.476562 215.933594 181.859375 216.648438 182.222656 C 217.363281 182.585938 218.089844 182.929688 218.820312 183.253906 C 219.554688 183.578125 220.296875 183.878906 221.050781 184.160156 C 221.800781 184.445312 222.558594 184.707031 223.320312 184.945312 C 224.085938 185.1875 224.859375 185.40625 225.636719 185.605469 C 226.414062 185.804688 227.195312 185.980469 227.980469 186.136719 C 228.769531 186.292969 229.558594 186.425781 230.351562 186.539062 C 231.144531 186.648438 231.941406 186.738281 232.742188 186.808594 C 233.539062 186.875 234.339844 186.921875 235.144531 186.945312 C 235.945312 186.972656 236.746094 186.972656 237.546875 186.953125 C 238.351562 186.933594 239.148438 186.890625 239.949219 186.828125 C 240.75 186.765625 241.546875 186.679688 242.339844 186.570312 C 243.136719 186.464844 243.925781 186.335938 244.714844 186.183594 C 245.503906 186.03125 246.285156 185.859375 247.0625 185.664062 C 239.976562 160.585938 207.113281 164.6875 204.03125 141.066406 C 199.765625 108.339844 227.953125 101.945312 242.148438 99.773438 Z M 242.148438 99.773438 " fill-opacity="1" fill-rule="nonzero"/></svg>