<svg width="39" height="32" viewBox="0 0 39 32" fill="none" xmlns="http://www.w3.org/2000/svg">
<path d="M19.0584 7.94968C19.0584 8.1937 19.0464 8.43705 19.0224 8.68041C18.9985 8.9231 18.9626 9.16446 18.9147 9.40382C18.8675 9.64319 18.8077 9.87923 18.7372 10.1133C18.6661 10.3467 18.5843 10.576 18.4905 10.8015C18.3974 11.0275 18.293 11.2476 18.178 11.463C18.063 11.6785 17.9373 11.8872 17.8017 12.09C17.666 12.2935 17.5211 12.489 17.3662 12.6778C17.2112 12.8666 17.0477 13.0468 16.8748 13.2197C16.7026 13.3926 16.5217 13.5562 16.3329 13.7111C16.1441 13.866 15.9486 14.0109 15.7458 14.1466C15.5423 14.2822 15.3336 14.4079 15.1181 14.5229C14.9027 14.638 14.6826 14.7417 14.4572 14.8354C14.2318 14.9285 14.0018 15.011 13.7684 15.0821C13.535 15.1526 13.2983 15.2118 13.0589 15.2596C12.8196 15.3068 12.5782 15.3428 12.3355 15.3667C12.0921 15.3906 11.8488 15.4026 11.6048 15.4026C11.3608 15.4026 11.1174 15.3906 10.874 15.3667C10.6314 15.3428 10.39 15.3068 10.1506 15.2596C9.91126 15.2118 9.67455 15.1526 9.44117 15.0821C9.20779 15.011 8.9784 14.9285 8.75233 14.8354C8.52693 14.7417 8.30685 14.638 8.09142 14.5229C7.87599 14.4079 7.66721 14.2822 7.46375 14.1466C7.26095 14.0109 7.06547 13.866 6.87664 13.7111C6.6878 13.5562 6.50695 13.3926 6.33474 13.2197C6.16186 13.0468 5.9983 12.8666 5.84337 12.6778C5.68845 12.489 5.5435 12.2935 5.40786 12.09C5.27222 11.8872 5.14655 11.6785 5.03152 11.463C4.9165 11.2476 4.81211 11.0275 4.71902 10.8015C4.62527 10.576 4.54348 10.3467 4.47234 10.1133C4.40186 9.87923 4.34268 9.64319 4.29481 9.40382C4.24694 9.16446 4.2117 8.9231 4.18776 8.68041C4.16382 8.43705 4.15186 8.1937 4.15186 7.94968C4.15186 7.70566 4.16382 7.46164 4.18776 7.21895C4.2117 6.97625 4.24694 6.73489 4.29481 6.49553C4.34268 6.25616 4.40186 6.01946 4.47234 5.78608C4.54348 5.55269 4.62527 5.32264 4.71902 5.09723C4.81211 4.87183 4.9165 4.65175 5.03152 4.43632C5.14655 4.22089 5.27222 4.01145 5.40786 3.80865C5.5435 3.60585 5.68845 3.40971 5.84337 3.22154C5.9983 3.03271 6.16186 2.85185 6.33474 2.67964C6.50695 2.50677 6.6878 2.3432 6.87664 2.18828C7.06547 2.03335 7.26095 1.88774 7.46375 1.75276C7.66721 1.61712 7.87599 1.49146 8.09142 1.37643C8.30685 1.2614 8.52693 1.15701 8.75233 1.06392C8.9784 0.970171 9.20779 0.888388 9.44117 0.817243C9.67455 0.746098 9.91126 0.686921 10.1506 0.639713C10.39 0.59184 10.6314 0.555935 10.874 0.531999C11.1174 0.508062 11.3608 0.496094 11.6048 0.496094C11.8488 0.496094 12.0921 0.508062 12.3355 0.531999C12.5782 0.555935 12.8196 0.59184 13.0589 0.639713C13.2983 0.686921 13.535 0.746098 13.7684 0.817243C14.0018 0.888388 14.2318 0.970171 14.4572 1.06392C14.6826 1.15701 14.9027 1.2614 15.1181 1.37643C15.3336 1.49146 15.5423 1.61712 15.7458 1.75276C15.9486 1.88774 16.1441 2.03335 16.3329 2.18828C16.5217 2.3432 16.7026 2.50677 16.8748 2.67964C17.0477 2.85185 17.2112 3.03271 17.3662 3.22154C17.5211 3.40971 17.666 3.60585 17.8017 3.80865C17.9373 4.01145 18.063 4.22089 18.178 4.43632C18.293 4.65175 18.3974 4.87183 18.4905 5.09723C18.5843 5.32264 18.6661 5.55269 18.7372 5.78608C18.8077 6.01946 18.8675 6.25616 18.9147 6.49553C18.9626 6.73489 18.9985 6.97625 19.0224 7.21895C19.0464 7.46164 19.0584 7.70566 19.0584 7.94968Z" fill="#001649"/>
<mask id="mask0_2682_7401" style="mask-type:luminance" maskUnits="userSpaceOnUse" x="0" y="17" width="23" height="15">
<path d="M0 17.2559H22.6387V31.1883H0V17.2559Z" fill="white"/>
</mask>
<g mask="url(#mask0_2682_7401)">
<path d="M19.9406 31.1187C21.5357 31.1274 22.7791 29.6938 22.4959 28.124C21.3861 21.9656 16.8342 17.3419 11.3627 17.3126C5.89186 17.2827 1.29072 21.8566 0.113174 28.003C-0.186698 29.5702 1.04138 31.0163 2.63649 31.025L19.9406 31.1187Z" fill="#001649"/>
</g>
<mask id="mask1_2682_7401" style="mask-type:luminance" maskUnits="userSpaceOnUse" x="0" y="17" width="17" height="15">
<path d="M0 17.2559H16.1705V31.1883H0V17.2559Z" fill="white"/>
</mask>
<g mask="url(#mask1_2682_7401)">
<path d="M6.61129 27.6918C5.21299 24.8952 10.981 25.2443 14.4751 22.7974C17.91 20.3931 14.5396 17.9131 14.4199 17.8266C13.4286 17.4902 12.4086 17.3186 11.3614 17.3126C5.89186 17.2827 1.29072 21.8566 0.113174 28.003C-0.186698 29.5702 1.04138 31.0163 2.63649 31.025L10.1353 31.0655C9.33474 30.1061 7.41915 29.3075 6.61129 27.6918Z" fill="#E88684"/>
</g>
<path d="M12.5744 0.560774C12.4387 0.543486 12.3031 0.529523 12.1668 0.518885C12.0305 0.508911 11.8942 0.502262 11.7579 0.499602C11.6216 0.496943 11.4853 0.497608 11.3483 0.502262C11.212 0.507581 11.0757 0.51556 10.94 0.528193C10.8037 0.540162 10.6688 0.556119 10.5338 0.576067C10.3981 0.595349 10.2638 0.61862 10.1302 0.645882C9.99655 0.673143 9.86356 0.703728 9.73125 0.738303C9.59893 0.772213 9.46795 0.810113 9.33829 0.852002C9.20797 0.893891 9.07898 0.93844 8.95198 0.987643C8.82432 1.03618 8.69799 1.08804 8.57365 1.1439C8.44865 1.19908 8.32564 1.25826 8.20396 1.32076C8.08295 1.3826 7.96327 1.44842 7.84558 1.51757C7.72723 1.58606 7.61153 1.65853 7.49783 1.73367C7.38413 1.8088 7.27243 1.88726 7.16272 1.96904C7.05301 2.05016 6.94596 2.1346 6.84091 2.22171C6.73585 2.30947 6.63346 2.39924 6.53372 2.49232C6.43332 2.58541 6.33624 2.68049 6.24116 2.7789C6.14675 2.8773 6.05499 2.97837 5.96523 3.08143C5.87613 3.18515 5.79036 3.29087 5.70658 3.39859C5.62347 3.50697 5.54301 3.61734 5.46588 3.72971C5.38809 3.84208 5.31429 3.95644 5.24314 4.07347C5.172 4.18982 5.10418 4.30818 5.03968 4.42852C4.97518 4.54887 4.91401 4.67055 4.85617 4.79422C4.79832 4.91789 4.74446 5.04356 4.69326 5.16989C4.64207 5.29689 4.59486 5.42455 4.55097 5.55354C4.50709 5.6832 4.46653 5.81352 4.42996 5.94517C4.39339 6.07616 4.36015 6.20848 4.33089 6.34212C4.30097 6.4751 4.2757 6.60941 4.2531 6.74439C4.23116 6.8787 4.2132 7.01367 4.19858 7.14998C4.18328 7.28562 4.17264 7.42126 4.16533 7.55757C4.15802 7.69387 4.15469 7.83018 4.15536 7.96715C4.15536 8.10345 4.15935 8.23976 4.16732 8.37606C4.1753 8.51237 4.18661 8.64868 4.2019 8.78432C4.21719 8.91996 4.23647 9.05493 4.25908 9.18924C4.28169 9.32422 4.30762 9.45786 4.33821 9.59085C4.36813 9.72449 4.40204 9.85681 4.43927 9.98779C4.47651 10.1194 4.51706 10.2491 4.56161 10.3781C4.60616 10.5077 4.65404 10.6354 4.7059 10.7617C4.7571 10.8881 4.81228 11.0131 4.87079 11.1361C4.92864 11.2598 4.99048 11.3814 5.05564 11.5018C5.1208 11.6215 5.18862 11.7398 5.26043 11.8562C5.33224 11.9719 5.40671 12.0862 5.4845 12.1986C5.5623 12.311 5.64341 12.4207 5.72719 12.5284C5.81097 12.6361 5.89741 12.7412 5.98717 12.8442C6.07693 12.9473 6.16935 13.0477 6.26443 13.1454C6.35952 13.2432 6.45726 13.3382 6.55766 13.4313C6.65806 13.5238 6.76112 13.6135 6.86617 13.7C6.97189 13.7871 7.07961 13.8708 7.18932 13.952C7.29903 14.0324 7.4114 14.1102 7.52576 14.1853C7.63946 14.2598 7.75582 14.3316 7.87417 14.4001C7.99186 14.4686 8.11221 14.5337 8.23388 14.5956C8.35556 14.6574 8.47857 14.7153 8.60357 14.7705C8.72857 14.8256 8.8549 14.8768 8.98257 14.9254C9.11023 14.9732 9.23922 15.0178 9.36954 15.059C9.49986 15.0996 9.63151 15.1375 9.76316 15.1707C9.89548 15.2046 10.0291 15.2346 10.1628 15.2612C10.2964 15.2877 10.4314 15.3104 10.5664 15.3296C10.7013 15.3489 10.837 15.3642 10.9733 15.3755C11.1089 15.3875 11.2452 15.3948 11.3815 15.3995C11.5185 15.4034 11.6548 15.4034 11.7911 15.4001C11.9274 15.3968 12.0637 15.3901 12.2 15.3788C12.3363 15.3682 12.472 15.3536 12.607 15.3356C12.7426 15.317 12.8769 15.2951 13.0112 15.2691C13.1449 15.2439 13.2785 15.2139 13.4108 15.1814C12.204 10.912 6.61085 11.6108 6.08624 7.59015C5.36016 2.01891 10.1581 0.931126 12.5744 0.560774Z" fill="#E88684"/>
<path d="M35.1047 8.26444C35.1047 8.50913 35.0928 8.75248 35.0688 8.99517C35.0449 9.23853 35.009 9.47922 34.9611 9.71859C34.9139 9.95795 34.8547 10.1947 34.7836 10.428C34.7124 10.6621 34.6307 10.8915 34.5369 11.1169C34.4438 11.3423 34.3394 11.563 34.2244 11.7785C34.1094 11.9932 33.9844 12.2027 33.8487 12.4055C33.7131 12.6083 33.5675 12.8044 33.4126 12.9932C33.2576 13.1814 33.0941 13.3623 32.9219 13.5351C32.749 13.7074 32.5681 13.8716 32.3793 14.0258C32.1911 14.1808 31.995 14.3264 31.7922 14.462C31.5894 14.5977 31.3799 14.7227 31.1645 14.8377C30.9498 14.9527 30.729 15.0571 30.5036 15.1509C30.2782 15.2439 30.0488 15.3264 29.8148 15.3969C29.5814 15.468 29.3447 15.5272 29.1053 15.5751C28.8659 15.6223 28.6246 15.6582 28.3819 15.6821C28.1392 15.7061 27.8952 15.718 27.6512 15.718C27.4071 15.718 27.1638 15.7061 26.9211 15.6821C26.6777 15.6582 26.4364 15.6223 26.197 15.5751C25.9576 15.5272 25.7216 15.468 25.4876 15.3969C25.2542 15.3264 25.0248 15.2439 24.7994 15.1509C24.5733 15.0571 24.3532 14.9527 24.1378 14.8377C23.9224 14.7227 23.7136 14.5977 23.5108 14.462C23.3073 14.3264 23.1119 14.1808 22.923 14.0258C22.7342 13.8716 22.554 13.7074 22.3811 13.5351C22.2082 13.3623 22.0447 13.1814 21.8898 12.9932C21.7348 12.8044 21.5899 12.6083 21.4542 12.4055C21.3186 12.2027 21.1936 11.9932 21.0779 11.7785C20.9629 11.563 20.8592 11.3423 20.7654 11.1169C20.6723 10.8915 20.5899 10.6621 20.5194 10.428C20.4482 10.1947 20.3891 9.95795 20.3412 9.71859C20.294 9.47922 20.2581 9.23853 20.2341 8.99517C20.2102 8.75248 20.1982 8.50913 20.1982 8.26444C20.1982 8.02042 20.2102 7.77707 20.2341 7.53438C20.2581 7.29102 20.294 7.05032 20.3412 6.81096C20.3891 6.57159 20.4482 6.33489 20.5194 6.10151C20.5899 5.86746 20.6723 5.63807 20.7654 5.41266C20.8592 5.18726 20.9629 4.96651 21.0779 4.75108C21.1936 4.53632 21.3186 4.32687 21.4542 4.12408C21.5899 3.92128 21.7348 3.72514 21.8898 3.5363C22.0447 3.34813 22.2082 3.16728 22.3811 2.99441C22.554 2.8222 22.7342 2.65796 22.923 2.50304C23.1119 2.34878 23.3073 2.20317 23.5108 2.06753C23.7136 1.93189 23.9224 1.80689 24.1378 1.69186C24.3532 1.57683 24.5733 1.47244 24.7994 1.37869C25.0248 1.2856 25.2542 1.20315 25.4876 1.13267C25.7216 1.06153 25.9576 1.00235 26.197 0.954478C26.4364 0.90727 26.6777 0.871365 26.9211 0.847428C27.1638 0.823492 27.4071 0.811523 27.6512 0.811523C27.8952 0.811523 28.1392 0.823492 28.3819 0.847428C28.6246 0.871365 28.8659 0.90727 29.1053 0.954478C29.3447 1.00235 29.5814 1.06153 29.8148 1.13267C30.0488 1.20315 30.2782 1.2856 30.5036 1.37869C30.729 1.47244 30.9498 1.57683 31.1645 1.69186C31.3799 1.80689 31.5894 1.93189 31.7922 2.06753C31.995 2.20317 32.1911 2.34878 32.3793 2.50304C32.5681 2.65796 32.749 2.8222 32.9219 2.99441C33.0941 3.16728 33.2576 3.34813 33.4126 3.5363C33.5675 3.72514 33.7131 3.92128 33.8487 4.12408C33.9844 4.32687 34.1094 4.53632 34.2244 4.75108C34.3394 4.96651 34.4438 5.18726 34.5369 5.41266C34.6307 5.63807 34.7124 5.86746 34.7836 6.10151C34.8547 6.33489 34.9139 6.57159 34.9611 6.81096C35.009 7.05032 35.0449 7.29102 35.0688 7.53438C35.0928 7.77707 35.1047 8.02042 35.1047 8.26444Z" fill="#FCFCD8"/>
<mask id="mask2_2682_7401" style="mask-type:luminance" maskUnits="userSpaceOnUse" x="16" y="17" width="23" height="15">
<path d="M16 17.5967H38.6387V31.5045H16V17.5967Z" fill="white"/>
</mask>
<g mask="url(#mask2_2682_7401)">
<path d="M35.987 31.4348C37.5821 31.4428 38.8255 30.0099 38.5429 28.4401C37.4325 22.2811 32.8806 17.658 27.4097 17.6281C21.9382 17.5988 17.3371 22.1727 16.1596 28.3184C15.8597 29.8863 17.0878 31.3324 18.6835 31.3404L35.987 31.4348Z" fill="#FCFCD8"/>
</g>
<path d="M22.6577 28.0079C21.2594 25.2106 27.0274 25.5604 30.5222 23.1129C33.9564 20.7092 30.586 18.2291 30.4663 18.1427C29.4749 17.8063 28.455 17.6347 27.4078 17.6281C21.9382 17.5988 17.3371 22.1727 16.1596 28.3184C15.8597 29.8863 17.0878 31.3324 18.6835 31.3404L26.1817 31.3816C25.3818 30.4222 23.4655 29.623 22.6577 28.0079Z" fill="#E88684"/>
<path d="M28.6212 0.87718C28.4856 0.859227 28.35 0.845264 28.2137 0.835291C28.078 0.825317 27.9417 0.818668 27.8047 0.816009C27.6684 0.813349 27.5321 0.814014 27.3958 0.818668C27.2589 0.823322 27.1232 0.831966 26.9869 0.843935C26.8513 0.856568 26.7156 0.872526 26.5807 0.891808C26.4457 0.911755 26.3107 0.935026 26.1771 0.962288C26.0434 0.988884 25.9104 1.02013 25.7781 1.05404C25.6465 1.08862 25.5148 1.12652 25.3852 1.16841C25.2548 1.20963 25.1265 1.25485 24.9988 1.30338C24.8712 1.35192 24.7448 1.40445 24.6205 1.45964C24.4955 1.51549 24.3725 1.57466 24.2515 1.6365C24.1298 1.699 24.0101 1.76483 23.8924 1.83331C23.7741 1.90246 23.6584 1.97494 23.5447 2.05007C23.431 2.12521 23.3193 2.20366 23.2096 2.28478C23.0999 2.36657 22.9928 2.45101 22.8878 2.53811C22.7827 2.62521 22.6803 2.71564 22.5806 2.80873C22.4802 2.90115 22.3831 2.9969 22.288 3.0953C22.1936 3.19371 22.1019 3.29411 22.0128 3.39783C21.923 3.50089 21.8372 3.60661 21.7534 3.71499C21.6703 3.82271 21.5899 3.93308 21.5127 4.04545C21.4356 4.15848 21.3611 4.27285 21.29 4.38921C21.2189 4.50623 21.151 4.62458 21.0865 4.74493C21.022 4.86528 20.9609 4.98696 20.903 5.11063C20.8452 5.2343 20.7913 5.3593 20.7401 5.4863C20.6896 5.61263 20.6417 5.74096 20.5978 5.86995C20.554 5.99894 20.5141 6.12993 20.4768 6.26091C20.4403 6.39256 20.407 6.52488 20.3778 6.65853C20.3485 6.79151 20.3226 6.92582 20.3006 7.06013C20.278 7.1951 20.2601 7.33008 20.2454 7.46572C20.2308 7.60136 20.2195 7.73767 20.2122 7.87397C20.2055 8.01028 20.2016 8.14658 20.2022 8.28289C20.2022 8.41986 20.2062 8.55616 20.2142 8.69247C20.2222 8.82878 20.2335 8.96442 20.2488 9.10006C20.2641 9.2357 20.2833 9.37134 20.3059 9.50565C20.3286 9.63996 20.3551 9.77427 20.3851 9.90725C20.415 10.0402 20.4489 10.1725 20.4861 10.3042C20.5234 10.4352 20.5639 10.5655 20.6085 10.6945C20.653 10.8235 20.7009 10.9512 20.7528 11.0775C20.804 11.2045 20.8591 11.3288 20.9177 11.4525C20.9755 11.5762 21.0373 11.6978 21.1025 11.8175C21.1677 11.9379 21.2361 12.0556 21.3073 12.1719C21.3791 12.2883 21.4536 12.4026 21.5314 12.515C21.6092 12.6267 21.6903 12.7371 21.7741 12.8448C21.8578 12.9525 21.9443 13.0576 22.034 13.1606C22.1238 13.2637 22.2162 13.3641 22.3113 13.4618C22.4064 13.5596 22.5041 13.6547 22.6045 13.7471C22.7049 13.8395 22.808 13.9293 22.913 14.0164C23.0188 14.1028 23.1265 14.1872 23.2362 14.2677C23.3459 14.3488 23.4583 14.4266 23.5726 14.5017C23.6863 14.5762 23.8027 14.648 23.921 14.7165C24.0394 14.7843 24.1591 14.8495 24.2807 14.9113C24.4024 14.9732 24.5261 15.0317 24.6504 15.0869C24.7754 15.142 24.9018 15.1932 25.0301 15.2411C25.1578 15.2897 25.2867 15.3342 25.4164 15.3748C25.5467 15.416 25.6784 15.4532 25.8107 15.4871C25.943 15.521 26.076 15.551 26.2096 15.5776C26.3439 15.6042 26.4783 15.6268 26.6132 15.646C26.7482 15.6647 26.8838 15.68 27.0202 15.6919C27.1558 15.7032 27.2921 15.7112 27.4291 15.7152C27.5654 15.7198 27.7017 15.7198 27.838 15.7165C27.975 15.7132 28.1106 15.7059 28.2469 15.6952C28.3832 15.6846 28.5188 15.67 28.6538 15.6514C28.7895 15.6334 28.9238 15.6115 29.0581 15.5855C29.1924 15.5596 29.3254 15.5304 29.4577 15.4971C28.2516 11.2284 22.6577 11.9266 22.1331 7.90589C21.407 2.33532 26.205 1.24687 28.6212 0.87718Z" fill="#E88684"/>
</svg>
