<svg width="500" height="500" viewBox="0 0 500 500" fill="none" xmlns="http://www.w3.org/2000/svg">
<path d="M247.208 163.156C247.208 164.078 247.162 164.995 247.073 165.917C246.984 166.833 246.849 167.745 246.667 168.651C246.49 169.552 246.266 170.448 245.995 171.328C245.729 172.214 245.417 173.078 245.063 173.932C244.714 174.781 244.318 175.615 243.885 176.432C243.448 177.245 242.974 178.031 242.464 178.802C241.948 179.568 241.401 180.307 240.818 181.021C240.229 181.734 239.615 182.417 238.958 183.068C238.307 183.719 237.625 184.339 236.912 184.922C236.198 185.51 235.458 186.057 234.693 186.568C233.927 187.083 233.135 187.557 232.323 187.99C231.51 188.427 230.677 188.818 229.823 189.172C228.974 189.526 228.104 189.833 227.224 190.104C226.339 190.37 225.448 190.594 224.542 190.776C223.635 190.953 222.724 191.089 221.807 191.182C220.891 191.271 219.969 191.318 219.047 191.318C218.125 191.318 217.203 191.271 216.287 191.182C215.37 191.089 214.458 190.953 213.552 190.776C212.646 190.594 211.755 190.37 210.87 190.104C209.99 189.833 209.12 189.526 208.271 189.172C207.417 188.818 206.583 188.427 205.771 187.99C204.958 187.557 204.167 187.083 203.401 186.568C202.635 186.057 201.896 185.51 201.182 184.922C200.469 184.339 199.787 183.719 199.135 183.068C198.479 182.417 197.865 181.734 197.276 181.021C196.693 180.307 196.146 179.568 195.63 178.802C195.12 178.031 194.646 177.245 194.208 176.432C193.776 175.615 193.38 174.781 193.026 173.932C192.677 173.078 192.365 172.214 192.099 171.328C191.828 170.448 191.604 169.552 191.427 168.651C191.245 167.745 191.109 166.833 191.021 165.917C190.932 164.995 190.885 164.078 190.885 163.156C190.885 162.234 190.932 161.313 191.021 160.396C191.109 159.474 191.245 158.563 191.427 157.661C191.604 156.755 191.828 155.865 192.099 154.979C192.365 154.099 192.677 153.229 193.026 152.375C193.38 151.526 193.776 150.693 194.208 149.88C194.646 149.068 195.12 148.276 195.63 147.51C196.146 146.74 196.693 146 197.276 145.286C197.865 144.578 198.479 143.891 199.135 143.24C199.787 142.589 200.469 141.969 201.182 141.385C201.896 140.802 202.635 140.25 203.401 139.74C204.167 139.224 204.958 138.755 205.771 138.318C206.583 137.885 207.417 137.49 208.271 137.135C209.12 136.781 209.99 136.474 210.87 136.203C211.755 135.938 212.646 135.714 213.552 135.531C214.458 135.354 215.37 135.219 216.287 135.13C217.203 135.036 218.125 134.995 219.047 134.995C219.969 134.995 220.891 135.036 221.807 135.13C222.724 135.219 223.635 135.354 224.542 135.531C225.448 135.714 226.339 135.938 227.224 136.203C228.104 136.474 228.974 136.781 229.823 137.135C230.677 137.49 231.51 137.885 232.323 138.318C233.135 138.755 233.927 139.224 234.693 139.74C235.458 140.25 236.198 140.802 236.912 141.385C237.625 141.969 238.307 142.589 238.958 143.24C239.615 143.891 240.229 144.578 240.818 145.286C241.401 146 241.948 146.74 242.464 147.51C242.974 148.276 243.448 149.068 243.885 149.88C244.318 150.693 244.714 151.526 245.063 152.375C245.417 153.229 245.729 154.099 245.995 154.979C246.266 155.865 246.49 156.755 246.667 157.661C246.849 158.563 246.984 159.474 247.073 160.396C247.162 161.313 247.208 162.234 247.208 163.156Z" fill="#001649"/>
<mask id="mask0_2556_7146" style="mask-type:luminance" maskUnits="userSpaceOnUse" x="174" y="197" width="88" height="54">
<path d="M174.667 197.333H261.333V250.755H174.667V197.333Z" fill="white"/>
</mask>
<g mask="url(#mask0_2556_7146)">
<path d="M250.542 250.698C256.573 250.734 261.271 245.318 260.198 239.385C256.005 216.115 238.807 198.646 218.135 198.531C197.458 198.422 180.073 215.703 175.625 238.927C174.495 244.849 179.135 250.313 185.161 250.344L250.542 250.698Z" fill="#001649"/>
</g>
<path d="M200.177 237.75C194.896 227.182 216.687 228.505 229.891 219.255C242.87 210.172 230.135 200.802 229.682 200.479C225.937 199.203 222.083 198.557 218.125 198.531C197.458 198.422 180.073 215.703 175.625 238.927C174.495 244.849 179.135 250.313 185.161 250.344L213.495 250.5C210.469 246.875 203.229 243.854 200.177 237.75Z" fill="#E88684"/>
<path d="M222.708 135.24C221.688 135.104 220.661 135.026 219.625 135.005C218.594 134.984 217.563 135.021 216.536 135.115C215.51 135.208 214.49 135.354 213.474 135.557C212.464 135.766 211.469 136.026 210.484 136.339C209.5 136.651 208.536 137.021 207.594 137.443C206.651 137.859 205.734 138.333 204.844 138.854C203.953 139.375 203.094 139.943 202.266 140.557C201.432 141.172 200.641 141.833 199.885 142.536C199.13 143.24 198.417 143.979 197.74 144.76C197.068 145.542 196.438 146.359 195.849 147.214C195.266 148.063 194.729 148.943 194.245 149.854C193.755 150.76 193.318 151.698 192.932 152.651C192.547 153.609 192.219 154.589 191.938 155.583C191.661 156.578 191.438 157.583 191.271 158.599C191.104 159.62 190.995 160.646 190.938 161.677C190.885 162.708 190.885 163.74 190.948 164.766C191.005 165.797 191.12 166.823 191.292 167.844C191.464 168.859 191.693 169.865 191.974 170.859C192.255 171.849 192.589 172.823 192.979 173.781C193.37 174.74 193.813 175.672 194.302 176.578C194.792 177.484 195.333 178.365 195.922 179.208C196.51 180.057 197.146 180.875 197.823 181.651C198.5 182.427 199.219 183.167 199.979 183.87C200.74 184.568 201.531 185.224 202.365 185.833C203.198 186.448 204.057 187.01 204.953 187.531C205.844 188.047 206.766 188.516 207.708 188.927C208.656 189.344 209.62 189.708 210.604 190.021C211.589 190.328 212.589 190.583 213.599 190.781C214.615 190.984 215.635 191.13 216.661 191.214C217.693 191.302 218.719 191.333 219.75 191.307C220.786 191.281 221.813 191.203 222.833 191.062C223.859 190.927 224.87 190.729 225.87 190.479C221.313 174.349 200.177 176.99 198.198 161.797C195.453 140.75 213.583 136.635 222.708 135.24Z" fill="#E88684"/>
<path d="M307.839 164.349C307.839 165.271 307.797 166.188 307.703 167.109C307.615 168.026 307.479 168.938 307.297 169.839C307.12 170.745 306.896 171.641 306.625 172.521C306.359 173.406 306.047 174.271 305.698 175.125C305.344 175.974 304.948 176.807 304.516 177.62C304.078 178.438 303.604 179.224 303.094 179.995C302.583 180.76 302.031 181.5 301.448 182.214C300.865 182.927 300.245 183.609 299.594 184.26C298.938 184.911 298.255 185.531 297.542 186.115C296.828 186.703 296.089 187.25 295.323 187.76C294.557 188.276 293.766 188.75 292.953 189.182C292.141 189.62 291.307 190.01 290.453 190.365C289.604 190.719 288.734 191.026 287.854 191.297C286.969 191.563 286.078 191.786 285.172 191.969C284.266 192.146 283.354 192.281 282.438 192.375C281.521 192.464 280.599 192.51 279.677 192.51C278.755 192.51 277.833 192.464 276.917 192.375C276 192.281 275.089 192.146 274.182 191.969C273.281 191.786 272.385 191.563 271.505 191.297C270.62 191.026 269.755 190.719 268.901 190.365C268.047 190.01 267.214 189.62 266.401 189.182C265.589 188.75 264.797 188.276 264.031 187.76C263.266 187.25 262.526 186.703 261.812 186.115C261.099 185.531 260.417 184.911 259.766 184.26C259.115 183.609 258.495 182.927 257.906 182.214C257.323 181.5 256.776 180.76 256.26 179.995C255.75 179.224 255.276 178.438 254.844 177.62C254.406 176.807 254.01 175.974 253.661 175.125C253.307 174.271 252.995 173.406 252.729 172.521C252.458 171.641 252.24 170.745 252.057 169.839C251.875 168.938 251.74 168.026 251.651 167.109C251.563 166.188 251.516 165.271 251.516 164.349C251.516 163.427 251.563 162.505 251.651 161.589C251.74 160.667 251.875 159.755 252.057 158.854C252.24 157.948 252.458 157.052 252.729 156.172C252.995 155.292 253.307 154.422 253.661 153.568C254.01 152.719 254.406 151.885 254.844 151.073C255.276 150.26 255.75 149.469 256.26 148.703C256.776 147.932 257.323 147.193 257.906 146.479C258.495 145.766 259.115 145.083 259.766 144.432C260.417 143.781 261.099 143.161 261.812 142.578C262.526 141.995 263.266 141.443 264.031 140.932C264.797 140.417 265.589 139.943 266.401 139.51C267.214 139.078 268.047 138.682 268.901 138.328C269.755 137.974 270.62 137.667 271.505 137.396C272.385 137.13 273.281 136.906 274.182 136.724C275.089 136.547 276 136.411 276.917 136.323C277.833 136.229 278.755 136.188 279.677 136.188C280.599 136.188 281.521 136.229 282.438 136.323C283.354 136.411 284.266 136.547 285.172 136.724C286.078 136.906 286.969 137.13 287.854 137.396C288.734 137.667 289.604 137.974 290.453 138.328C291.307 138.682 292.141 139.078 292.953 139.51C293.766 139.943 294.557 140.417 295.323 140.932C296.089 141.443 296.828 141.995 297.542 142.578C298.255 143.161 298.938 143.781 299.594 144.432C300.245 145.083 300.865 145.766 301.448 146.479C302.031 147.193 302.583 147.932 303.094 148.703C303.604 149.469 304.078 150.26 304.516 151.073C304.948 151.885 305.344 152.719 305.698 153.568C306.047 154.422 306.359 155.292 306.625 156.172C306.896 157.052 307.12 157.948 307.297 158.854C307.479 159.755 307.615 160.667 307.703 161.589C307.797 162.505 307.839 163.427 307.839 164.349Z" fill="#FCFCD8"/>
<mask id="mask1_2556_7146" style="mask-type:luminance" maskUnits="userSpaceOnUse" x="236" y="198" width="86" height="54">
<path d="M236 198.667H321.333V251.948H236V198.667Z" fill="white"/>
</mask>
<g mask="url(#mask1_2556_7146)">
<path d="M311.172 251.891C317.203 251.922 321.901 246.51 320.828 240.578C316.636 217.307 299.438 199.839 278.766 199.724C258.094 199.615 240.703 216.896 236.255 240.12C235.125 246.042 239.766 251.505 245.792 251.536L311.172 251.891Z" fill="#FCFCD8"/>
</g>
<mask id="mask2_2556_7146" style="mask-type:luminance" maskUnits="userSpaceOnUse" x="236" y="198" width="62" height="54">
<path d="M236 198.667H297.333V251.948H236V198.667Z" fill="white"/>
</mask>
<g mask="url(#mask2_2556_7146)">
<path d="M260.813 238.943C255.526 228.375 277.323 229.698 290.526 220.448C303.5 211.365 290.766 201.995 290.318 201.667C286.568 200.396 282.714 199.75 278.755 199.724C258.089 199.615 240.703 216.896 236.255 240.12C235.125 246.042 239.766 251.505 245.792 251.536L274.125 251.693C271.104 248.068 263.86 245.047 260.813 238.943Z" fill="#E88684"/>
</g>
<path d="M283.344 136.432C282.318 136.297 281.292 136.219 280.26 136.198C279.224 136.177 278.198 136.214 277.167 136.307C276.141 136.401 275.12 136.547 274.109 136.75C273.094 136.958 272.099 137.219 271.115 137.531C270.13 137.844 269.167 138.214 268.224 138.63C267.281 139.052 266.365 139.526 265.474 140.047C264.583 140.568 263.724 141.135 262.896 141.75C262.068 142.365 261.276 143.026 260.516 143.729C259.76 144.432 259.047 145.172 258.37 145.953C257.698 146.734 257.068 147.552 256.484 148.401C255.896 149.255 255.359 150.135 254.875 151.047C254.385 151.953 253.948 152.891 253.562 153.844C253.177 154.802 252.849 155.781 252.568 156.776C252.292 157.771 252.068 158.776 251.901 159.792C251.734 160.812 251.625 161.839 251.568 162.87C251.516 163.901 251.516 164.932 251.578 165.958C251.635 166.99 251.75 168.016 251.922 169.031C252.094 170.052 252.323 171.057 252.604 172.052C252.885 173.042 253.224 174.016 253.609 174.974C254 175.932 254.443 176.859 254.932 177.771C255.427 178.677 255.963 179.557 256.552 180.401C257.141 181.25 257.776 182.062 258.453 182.844C259.13 183.62 259.849 184.359 260.609 185.062C261.37 185.76 262.161 186.417 262.995 187.026C263.828 187.641 264.687 188.203 265.583 188.724C266.474 189.24 267.396 189.703 268.338 190.12C269.286 190.536 270.25 190.901 271.234 191.208C272.219 191.521 273.219 191.776 274.229 191.974C275.245 192.177 276.266 192.318 277.292 192.406C278.323 192.495 279.354 192.526 280.385 192.5C281.417 192.474 282.443 192.396 283.469 192.255C284.49 192.12 285.5 191.922 286.505 191.672C281.943 175.542 260.812 178.182 258.828 162.99C256.083 141.943 274.213 137.828 283.344 136.432Z" fill="#E88684"/>
<path d="M93.5822 294.985C93.3426 304.459 93.254 313.813 93.3113 323.048C93.379 332.272 93.5301 340.235 93.7697 346.943C93.8947 347.662 93.2072 348.381 91.7072 349.089C90.2072 349.808 88.5249 350.235 86.6655 350.36C84.8009 350.485 83.0926 350.157 81.5405 349.381C79.9832 348.6 79.3217 347.131 79.5613 344.964C79.3217 341.621 79.2072 338.626 79.2072 335.985C79.2072 333.35 79.2072 330.318 79.2072 326.902C79.2072 323.485 79.2072 319.318 79.2072 314.402C79.2072 309.485 79.2072 303.079 79.2072 295.173H69.853C67.5717 295.173 65.9832 294.485 65.0822 293.11C64.1915 291.725 63.8009 290.193 63.9155 288.527C64.0405 286.85 64.5457 285.318 65.4363 283.943C66.3374 282.558 67.5092 281.86 68.9572 281.86H79.5613C80.0457 275.626 80.9155 269.725 82.1655 264.152C83.4259 258.584 85.1082 253.73 87.2072 249.589C89.3009 245.454 91.9363 242.152 95.103 239.693C98.2801 237.235 102.093 236.006 106.541 236.006C110.134 236.006 113.28 236.61 115.978 237.818C118.671 239.016 120.942 240.48 122.791 242.214C124.65 243.954 126.124 245.813 127.207 247.798C128.291 249.772 129.067 251.537 129.541 253.089C130.624 255.256 130.775 257.272 129.999 259.131C129.218 260.98 128.082 262.355 126.582 263.256C125.082 264.162 123.462 264.459 121.728 264.152C119.988 263.85 118.697 262.621 117.853 260.464C116.895 257.355 115.572 254.959 113.895 253.277C112.228 251.6 109.832 250.693 106.707 250.568C104.791 250.568 103.082 251.355 101.582 252.923C100.082 254.48 98.8217 256.667 97.8113 259.485C96.7957 262.292 95.9572 265.621 95.2905 269.464C94.6342 273.298 94.129 277.433 93.7697 281.86H114.27C116.421 282.225 117.884 283.183 118.666 284.735C119.442 286.292 119.676 287.855 119.374 289.423C119.082 290.98 118.332 292.355 117.124 293.548C115.926 294.746 114.499 295.162 112.832 294.798L93.5822 294.985Z" fill="#FCFCD8"/>
<path d="M183.661 304.881C181.853 303.204 179.838 301.704 177.619 300.381C175.411 299.063 173.046 298.402 170.536 298.402C168.004 298.402 165.666 298.917 163.515 299.943C161.359 300.959 159.442 302.334 157.765 304.068C156.083 305.808 154.765 307.813 153.806 310.089C152.848 312.371 152.369 314.766 152.369 317.277V342.818C152.244 344.735 151.52 346.318 150.202 347.568C148.895 348.829 147.431 349.553 145.806 349.735C144.192 349.912 142.64 349.527 141.14 348.568C139.64 347.61 138.708 345.876 138.348 343.36L138.536 289.235C138.536 286.959 139.223 285.376 140.598 284.485C141.973 283.584 143.499 283.193 145.181 283.318C146.859 283.433 148.39 283.938 149.765 284.839C151.14 285.73 151.827 286.897 151.827 288.339L152.015 291.214C154.65 289.173 157.499 287.621 160.556 286.548C163.609 285.464 166.874 284.923 170.348 284.923C175.374 284.923 179.984 285.975 184.181 288.068C188.39 290.167 191.749 293.193 194.265 297.152C194.984 298.35 195.166 299.725 194.806 301.277C194.442 302.834 193.723 304.152 192.64 305.235C191.556 306.318 190.234 306.954 188.681 307.131C187.124 307.313 185.452 306.563 183.661 304.881Z" fill="#FCFCD8"/>
<path d="M251.242 329.152C252.434 327.834 253.929 327.173 255.721 327.173C257.523 327.173 259.143 327.626 260.575 328.527C262.018 329.417 263.013 330.61 263.554 332.11C264.096 333.61 263.705 335.204 262.388 336.881C259.039 341.079 255.231 344.225 250.971 346.318C246.721 348.412 242.408 349.61 238.033 349.902C233.658 350.204 229.372 349.673 225.179 348.298C220.981 346.923 217.231 344.798 213.929 341.923C210.638 339.037 207.997 335.464 206.013 331.214C204.039 326.964 203.054 322.204 203.054 316.923C203.054 312.605 203.856 308.501 205.471 304.61C207.096 300.709 209.346 297.292 212.221 294.36C215.106 291.417 218.471 289.079 222.304 287.339C226.138 285.605 230.21 284.683 234.533 284.568C238.242 284.443 241.804 284.923 245.221 286.006C248.638 287.079 251.69 288.631 254.388 290.673C257.08 292.714 259.325 295.235 261.117 298.235C262.919 301.225 264.122 304.579 264.721 308.298C265.33 312.371 264.705 315.579 262.846 317.923C260.981 320.256 256.877 321.423 250.533 321.423L216.554 321.235C217.263 324.959 218.846 328.204 221.304 330.964C223.763 333.714 226.638 335.6 229.929 336.61C233.231 337.626 236.773 337.6 240.554 336.527C244.33 335.443 247.893 332.985 251.242 329.152ZM234.346 298.048C230.872 298.162 227.752 299.147 224.992 301.006C222.242 302.871 220.085 305.298 218.533 308.298L251.596 308.652C250.997 306.376 250.101 304.548 248.908 303.173C247.71 301.787 246.33 300.704 244.763 299.923C243.205 299.147 241.523 298.641 239.721 298.402C237.929 298.167 236.138 298.048 234.346 298.048Z" fill="#FCFCD8"/>
<path d="M320.281 344.798C320.515 334.48 320.27 326.266 319.552 320.152C318.828 314.042 317.833 309.371 316.573 306.131C315.323 302.897 313.885 300.798 312.26 299.839C310.645 298.881 309.125 298.402 307.698 298.402C305.166 298.402 302.828 298.917 300.677 299.943C298.52 300.959 296.604 302.334 294.927 304.068C293.244 305.808 291.927 307.813 290.968 310.089C290.01 312.371 289.531 314.766 289.531 317.277V342.818C289.406 344.735 288.682 346.318 287.364 347.568C286.057 348.829 284.593 349.553 282.968 349.735C281.354 349.912 279.802 349.527 278.302 348.568C276.802 347.61 275.869 345.876 275.51 343.36L275.698 289.235C275.698 286.959 276.385 285.376 277.76 284.485C279.135 283.584 280.661 283.193 282.343 283.318C284.02 283.433 285.552 283.938 286.927 284.839C288.302 285.73 288.989 286.897 288.989 288.339L289.177 291.214C291.812 289.173 294.661 287.621 297.718 286.548C300.77 285.464 304.036 284.923 307.51 284.923C313.744 284.923 318.599 286.397 322.073 289.339C325.541 292.272 328.145 296.339 329.885 301.548C331.635 306.756 332.682 312.996 333.031 320.256C333.39 327.506 333.573 335.381 333.573 343.881C333.573 346.162 332.885 347.746 331.51 348.652C330.135 349.553 328.604 349.943 326.927 349.818C325.244 349.704 323.718 349.199 322.343 348.298C320.968 347.397 320.281 346.23 320.281 344.798Z" fill="#FCFCD8"/>
<path d="M343.636 243.568C343.996 241.417 344.954 239.923 346.511 239.089C348.063 238.246 349.683 237.881 351.365 238.006C353.042 238.121 354.542 238.714 355.865 239.798C357.183 240.871 357.845 242.188 357.845 243.756L358.199 342.443C358.199 344.725 357.511 346.313 356.136 347.214C354.761 348.115 353.23 348.506 351.553 348.381C349.871 348.266 348.345 347.761 346.97 346.86C345.595 345.959 344.907 344.792 344.907 343.36L343.636 243.568Z" fill="#FCFCD8"/>
<path d="M399.361 347.673L368.632 293.006C368.143 290.855 368.445 289.089 369.528 287.714C370.611 286.329 371.955 285.371 373.57 284.839C375.195 284.298 376.809 284.235 378.424 284.652C380.049 285.068 381.158 286.001 381.757 287.443L406.028 329.152L421.132 287.068C422.325 285.152 423.788 284.079 425.528 283.839C427.262 283.605 428.908 283.876 430.466 284.652C432.033 285.433 433.236 286.542 434.07 287.985C434.903 289.417 435.018 290.855 434.424 292.298L402.966 376.798C402.242 378.824 401.07 380.016 399.445 380.381C397.83 380.74 396.278 380.558 394.778 379.839C393.288 379.131 392.059 378.115 391.091 376.798C390.132 375.475 389.893 374.157 390.382 372.839L399.361 347.673Z" fill="#FCFCD8"/>
</svg>
