<svg width="29" height="28" viewBox="0 0 29 28" fill="none" xmlns="http://www.w3.org/2000/svg">
<path opacity="0.5" d="M14.121 0C6.3203 0 0 6.26613 0 14C0 21.7339 6.3203 28 14.121 28C21.9218 28 28.2421 21.7339 28.2421 14C28.2421 6.26613 21.9218 0 14.121 0ZM18.6762 9.48387C19.684 9.48387 20.4983 10.2911 20.4983 11.2903C20.4983 12.2895 19.684 13.0968 18.6762 13.0968C17.6684 13.0968 16.8541 12.2895 16.8541 11.2903C16.8541 10.2911 17.6684 9.48387 18.6762 9.48387ZM9.56586 9.48387C10.5737 9.48387 11.3879 10.2911 11.3879 11.2903C11.3879 12.2895 10.5737 13.0968 9.56586 13.0968C8.55803 13.0968 7.74379 12.2895 7.74379 11.2903C7.74379 10.2911 8.55803 9.48387 9.56586 9.48387ZM20.6577 19.0919C19.0349 21.0226 16.6549 22.129 14.121 22.129C11.5872 22.129 9.20714 21.0226 7.58436 19.0919C6.80998 18.1718 8.2107 17.0202 8.98508 17.9347C10.2605 19.4532 12.1281 20.3169 14.121 20.3169C16.1139 20.3169 17.9815 19.4476 19.257 17.9347C20.02 17.0202 21.4264 18.1718 20.6577 19.0919Z" fill="black"/>
</svg>
